<svg width="21" height="21" viewBox="0 0 21 21" fill="none" xmlns="http://www.w3.org/2000/svg">
<g clip-path="url(#clip0)">
<path opacity="0.6" d="M19.4171 8.09314L17.9443 3.18384C17.6085 2.06424 16.5979 1.3125 15.4296 1.3125H5.57043C4.40213 1.3125 3.39147 2.06424 3.05566 3.18384L1.58286 8.09314C0.652881 8.49729 0 9.42278 0 10.5V15.75C0 16.4748 0.587677 17.0625 1.3125 17.0625H1.31258L1.3125 18.3749C1.3125 19.0998 1.9001 19.6875 2.625 19.6875H3.93758C4.6624 19.6875 5.25008 19.0998 5.25008 18.375L5.24952 17.0625H15.75L15.7499 18.3749C15.7499 19.0998 16.3375 19.6875 17.0624 19.6875H18.375C19.0999 19.6875 19.6875 19.0998 19.6875 18.375V17.0626L19.687 17.0625H19.6875C20.4123 17.0625 21 16.4748 21 15.75V10.5C21 9.42278 20.3471 8.49728 19.4171 8.09313L19.4171 8.09314ZM5.57039 3.9375H15.4295L16.6108 7.875H4.38911L5.57039 3.9375H5.57039ZM5.24996 13.7812C4.52506 13.7812 3.93746 13.1936 3.93746 12.4688C3.93746 11.7438 4.52506 11.1562 5.24996 11.1562C5.97486 11.1562 6.56246 11.7438 6.56246 12.4688C6.56246 13.1936 5.97486 13.7812 5.24996 13.7812ZM15.75 13.7812C15.0251 13.7812 14.4375 13.1936 14.4375 12.4688C14.4375 11.7438 15.0251 11.1562 15.75 11.1562C16.4749 11.1562 17.0625 11.7438 17.0625 12.4688C17.0625 13.1936 16.4749 13.7812 15.75 13.7812Z" fill="white"/>
<mask id="mask0" mask-type="alpha" maskUnits="userSpaceOnUse" x="0" y="1" width="21" height="7">
<path d="M0 1H21V8H17L16.6133 7.87109H4.39453L4 8H0V1Z" fill="#C4C4C4"/>
</mask>
<g mask="url(#mask0)">
<path d="M19.4171 8.09314L17.9443 3.18384C17.6085 2.06424 16.5979 1.3125 15.4296 1.3125H5.57043C4.40213 1.3125 3.39147 2.06424 3.05566 3.18384L1.58286 8.09314C0.652881 8.49729 0 9.42278 0 10.5V15.75C0 16.4748 0.587677 17.0625 1.3125 17.0625H1.31258L1.3125 18.3749C1.3125 19.0998 1.9001 19.6875 2.625 19.6875H3.93758C4.6624 19.6875 5.25008 19.0998 5.25008 18.375L5.24952 17.0625H15.75L15.7499 18.3749C15.7499 19.0998 16.3375 19.6875 17.0624 19.6875H18.375C19.0999 19.6875 19.6875 19.0998 19.6875 18.375V17.0626L19.687 17.0625H19.6875C20.4123 17.0625 21 16.4748 21 15.75V10.5C21 9.42278 20.3471 8.49728 19.4171 8.09313L19.4171 8.09314ZM5.57039 3.9375H15.4295L16.6108 7.875H4.38911L5.57039 3.9375H5.57039ZM5.24996 13.7812C4.52506 13.7812 3.93746 13.1936 3.93746 12.4688C3.93746 11.7438 4.52506 11.1562 5.24996 11.1562C5.97486 11.1562 6.56246 11.7438 6.56246 12.4688C6.56246 13.1936 5.97486 13.7812 5.24996 13.7812ZM15.75 13.7812C15.0251 13.7812 14.4375 13.1936 14.4375 12.4688C14.4375 11.7438 15.0251 11.1562 15.75 11.1562C16.4749 11.1562 17.0625 11.7438 17.0625 12.4688C17.0625 13.1936 16.4749 13.7812 15.75 13.7812Z" fill="#FDAB3E"/>
</g>
</g>
<defs>
<clipPath id="clip0">
<rect width="21" height="21" fill="white"/>
</clipPath>
</defs>
</svg>
