<svg width="21" height="21" viewBox="0 0 21 21" fill="none" xmlns="http://www.w3.org/2000/svg">
<path opacity="0.6" d="M17.6268 1.41406H3.35267C1.86024 1.41406 0.645996 2.62831 0.645996 4.12073V12.8562C0.645996 14.3457 1.85496 15.5578 3.34305 15.5629V19.5272L9.03962 15.5632H17.6268C19.1192 15.5632 20.3335 14.349 20.3335 12.8562V4.12073C20.3335 2.62831 19.1192 1.41406 17.6268 1.41406ZM15.0641 11.5658H5.91538V10.4122H15.0641V11.5658ZM15.0641 9.10484H5.91538V7.95128H15.0641V9.10484ZM15.0641 6.64391H5.91538V5.49035H15.0641V6.64391Z" fill="white"/>
<path d="M3.34302 19.5268V15.5625L9.03958 15.5629L3.34302 19.5268Z" fill="#FDAB3E"/>
</svg>
