<svg width="21" height="21" viewBox="0 0 21 21" fill="none" xmlns="http://www.w3.org/2000/svg">
<path d="M4.16663 6.34375C4.16663 4.27038 5.85367 2.58333 7.92704 2.58333H15.1573C14.8969 1.67212 14.0664 1 13.0729 1H3.96871C2.76775 1 1.79163 1.97613 1.79163 3.17708V15.4479C1.79163 16.6489 2.76775 17.625 3.96871 17.625H4.16663V6.34375Z" fill="#FDAB3E"/>
<path opacity="0.6" d="M17.0312 4.16797H7.92708C6.72612 4.16797 5.75 5.14409 5.75 6.34505V17.8242C5.75 19.0252 6.72612 20.0013 7.92708 20.0013H17.0312C18.2322 20.0013 19.2083 19.0252 19.2083 17.8242V6.34505C19.2083 5.14409 18.2322 4.16797 17.0312 4.16797ZM15.4479 17.6263H9.51042C9.18267 17.6263 8.91667 17.3603 8.91667 17.0326C8.91667 16.7048 9.18267 16.4388 9.51042 16.4388H15.4479C15.7757 16.4388 16.0417 16.7048 16.0417 17.0326C16.0417 17.3603 15.7757 17.6263 15.4479 17.6263ZM15.4479 14.4596H9.51042C9.18267 14.4596 8.91667 14.1936 8.91667 13.8659C8.91667 13.5381 9.18267 13.2721 9.51042 13.2721H15.4479C15.7757 13.2721 16.0417 13.5381 16.0417 13.8659C16.0417 14.1936 15.7757 14.4596 15.4479 14.4596ZM15.4479 11.6888H9.51042C9.18267 11.6888 8.91667 11.4228 8.91667 11.0951C8.91667 10.7673 9.18267 10.5013 9.51042 10.5013H15.4479C15.7757 10.5013 16.0417 10.7673 16.0417 11.0951C16.0417 11.4228 15.7757 11.6888 15.4479 11.6888ZM15.4479 8.52214H9.51042C9.18267 8.52214 8.91667 8.25614 8.91667 7.92839C8.91667 7.60064 9.18267 7.33464 9.51042 7.33464H15.4479C15.7757 7.33464 16.0417 7.60064 16.0417 7.92839C16.0417 8.25614 15.7757 8.52214 15.4479 8.52214Z" fill="white"/>
</svg>
