<svg width="21" height="21" viewBox="0 0 21 21" fill="none" xmlns="http://www.w3.org/2000/svg">
<g clip-path="url(#clip0)">
<path d="M19.0863 0.863281C18.7125 0.863281 18.4089 1.16642 18.4089 1.54069C18.4089 1.91453 18.7125 2.21809 19.0863 2.21809C19.3946 2.21809 19.6452 2.46873 19.6452 2.77653V18.229C19.6452 18.5368 19.3946 18.7874 19.0863 18.7874C18.7125 18.7874 18.4089 19.091 18.4089 19.4648C18.4089 19.8391 18.7125 20.1422 19.0863 20.1422C20.1414 20.1422 21 19.284 21 18.229V2.77653C21 1.72147 20.1414 0.863281 19.0863 0.863281ZM15.947 0.863281C15.5731 0.863281 15.2696 1.16642 15.2696 1.54069C15.2696 1.91453 15.5731 2.21809 15.947 2.21809C16.2552 2.21809 16.5058 2.46873 16.5058 2.77653V18.229C16.5058 18.5368 16.2552 18.7874 15.947 18.7874C15.5731 18.7874 15.2696 19.091 15.2696 19.4648C15.2696 19.8391 15.5731 20.1422 15.947 20.1422C17.0025 20.1422 17.8607 19.284 17.8607 18.229V2.77653C17.8607 1.72147 17.0025 0.863281 15.947 0.863281ZM14.7213 2.77653V18.229C14.7213 19.2841 13.8631 20.1422 12.8076 20.1422H6.46797C6.09328 20.1422 5.79014 19.8382 5.79056 19.4636C5.79225 18.859 5.78971 17.6545 5.78971 15.2018C5.78971 14.7332 5.40952 14.3534 4.94126 14.3534C2.48863 14.3534 1.28412 14.3508 0.679111 14.3525C0.304421 14.353 0.000434699 14.0498 0.000434699 13.6751V2.77653C0.000434699 1.71978 0.85693 0.863281 1.91368 0.863281H12.8076C13.8631 0.863281 14.7213 1.72147 14.7213 2.77653ZM5.1411 15.6794V19.4648C5.1411 20.0565 4.42601 20.3754 3.98443 19.9441C-0.104563 15.8547 0.0671168 16.0911 0.0131361 15.8098C-0.0695921 15.396 0.248746 15.002 0.67784 15.002H4.46369C4.83753 15.002 5.1411 15.3051 5.1411 15.6794Z" fill="#AFB1B7"/>
<path d="M5.1411 19.4667V15.6813C5.1411 15.307 4.83753 15.0039 4.46369 15.0039H0.67784C0.248746 15.0039 -0.0695921 15.3979 0.0131361 15.8117C0.0671168 16.093 -0.104563 15.8565 3.98443 19.946C4.42601 20.3773 5.1411 20.0584 5.1411 19.4667Z" fill="#FDAB3E"/>
<path d="M18.4089 1.54069C18.4089 1.16642 18.7124 0.863281 19.0863 0.863281C20.1413 0.863281 21 1.72147 21 2.77653V18.229C21 19.284 20.1413 20.1422 19.0863 20.1422C18.7124 20.1422 18.4089 19.8391 18.4089 19.4648C18.4089 19.091 18.7124 18.7874 19.0863 18.7874C19.3945 18.7874 19.6451 18.5368 19.6451 18.229V2.77653C19.6451 2.46873 19.3945 2.21809 19.0863 2.21809C18.7124 2.21809 18.4089 1.91453 18.4089 1.54069Z" fill="#FDAB3E"/>
<path d="M15.2695 1.54069C15.2695 1.16642 15.5731 0.863281 15.9469 0.863281C17.0024 0.863281 17.8606 1.72147 17.8606 2.77653V18.229C17.8606 19.284 17.0024 20.1422 15.9469 20.1422C15.5731 20.1422 15.2695 19.8391 15.2695 19.4648C15.2695 19.091 15.5731 18.7874 15.9469 18.7874C16.2552 18.7874 16.5058 18.5368 16.5058 18.229V2.77653C16.5058 2.46873 16.2552 2.21809 15.9469 2.21809C15.5731 2.21809 15.2695 1.91453 15.2695 1.54069Z" fill="#FDAB3E"/>
</g>
<defs>
<clipPath id="clip0">
<rect width="21" height="21" fill="white"/>
</clipPath>
</defs>
</svg>
