<svg width="21" height="21" viewBox="0 0 21 21" fill="none" xmlns="http://www.w3.org/2000/svg">
<path opacity="0.6" d="M4.93713 16.0615V1.84961C4.93713 1.50984 4.66167 1.23438 4.3219 1.23438H1.85071C1.51093 1.23438 1.23547 1.50984 1.23547 1.84961V16.0615H4.93713Z" fill="white"/>
<path opacity="0.6" d="M14.8219 16.063V4.32227C14.8219 3.98249 14.5464 3.70703 14.2067 3.70703H11.7355C11.3957 3.70703 11.1202 3.98249 11.1202 4.32227V16.063H14.8219Z" fill="white"/>
<path d="M9.87952 16.0615V6.79199C9.87952 6.45222 9.60405 6.17676 9.26428 6.17676H6.79309C6.45332 6.17676 6.17786 6.45222 6.17786 6.79199V16.0615H9.87952Z" fill="#FDAB3E"/>
<path d="M19.7643 16.0615V9.26318C19.7643 8.92341 19.4888 8.64795 19.149 8.64795H16.6779C16.3381 8.64795 16.0626 8.92341 16.0626 9.26318V16.0615H19.7643Z" fill="#FDAB3E"/>
<path opacity="0.6" d="M0 17.292V19.1479C0 19.4877 0.275461 19.7632 0.615234 19.7632H20.3848C20.7245 19.7632 21 19.4877 21 19.1479V17.292H0Z" fill="white"/>
</svg>
