<svg width="21" height="21" viewBox="0 0 21 21" fill="none" xmlns="http://www.w3.org/2000/svg">
<path d="M3.11719 9.84375C3.61354 9.84375 4.06279 9.6446 4.39476 9.32481L6.21595 10.2353C6.20682 10.3095 6.19336 10.3824 6.19336 10.459C6.19336 11.4767 7.02136 12.3047 8.03906 12.3047C9.05676 12.3047 9.88477 11.4767 9.88477 10.459C9.88477 10.1749 9.81491 9.90896 9.69971 9.66831L12.1703 7.19776C12.4109 7.31296 12.6769 7.38281 12.9609 7.38281C13.9786 7.38281 14.8066 6.55481 14.8066 5.53711C14.8066 5.34549 14.769 5.16428 14.7145 4.99045L16.8611 3.38091C17.154 3.57653 17.505 3.69141 17.8828 3.69141C18.9005 3.69141 19.7285 2.8634 19.7285 1.8457C19.7285 0.828003 18.9005 0 17.8828 0C16.8651 0 16.0371 0.828003 16.0371 1.8457C16.0371 2.03732 16.0748 2.21853 16.1292 2.39236L13.9826 4.00191C13.6898 3.80628 13.3387 3.69141 12.9609 3.69141C11.9432 3.69141 11.1152 4.51941 11.1152 5.53711C11.1152 5.82117 11.1851 6.08714 11.3003 6.32778L8.82973 8.79833C8.58909 8.68314 8.32313 8.61328 8.03906 8.61328C7.54271 8.61328 7.09346 8.81243 6.76149 9.13223L4.9403 8.22171C4.94943 8.14753 4.96289 8.07463 4.96289 7.99805C4.96289 6.98035 4.13489 6.15234 3.11719 6.15234C2.09949 6.15234 1.27148 6.98035 1.27148 7.99805C1.27148 9.01575 2.09949 9.84375 3.11719 9.84375Z" fill="#FDAB3E"/>
<path opacity="0.6" d="M20.3848 19.7695H19.7285V6.76758C19.7285 6.4276 19.4533 6.15234 19.1133 6.15234H16.6523C16.3124 6.15234 16.0371 6.4276 16.0371 6.76758V19.7695H14.8066V10.459C14.8066 10.119 14.5314 9.84375 14.1914 9.84375H11.7305C11.3905 9.84375 11.1152 10.119 11.1152 10.459V19.7695H9.88477V15.3809C9.88477 15.0409 9.60951 14.7656 9.26953 14.7656H6.80859C6.46861 14.7656 6.19336 15.0409 6.19336 15.3809V19.7695H4.96289V12.9199C4.96289 12.5799 4.68764 12.3047 4.34766 12.3047H1.88672C1.54674 12.3047 1.27148 12.5799 1.27148 12.9199V19.7695H0.615234C0.275253 19.7695 0 20.0448 0 20.3848C0 20.7247 0.275253 21 0.615234 21H20.3848C20.7247 21 21 20.7247 21 20.3848C21 20.0448 20.7247 19.7695 20.3848 19.7695Z" fill="white"/>
</svg>
