<svg width="21" height="21" viewBox="0 0 21 21" fill="none" xmlns="http://www.w3.org/2000/svg">
<path d="M20.9529 2.01292C20.858 1.78282 20.6333 1.68258 20.3846 1.68258H19.3593V0.657478C19.3593 0.408759 19.2183 0.143019 18.9881 0.0481089C18.7574 -0.0474165 18.4931 0.00483742 18.3176 0.181492L16.4316 2.10845C16.3409 2.19917 16.2808 2.31631 16.2598 2.44309L15.9767 4.15422L10.065 10.066C9.82469 10.3063 9.82469 10.6956 10.065 10.936C10.3053 11.1763 10.6947 11.1763 10.935 10.936L16.8466 5.02433L18.5579 4.74128C18.6847 4.7202 18.8019 4.66011 18.8926 4.56938L20.8195 2.68344C20.9956 2.50741 21.0485 2.24306 20.9529 2.01292Z" fill="#FDAB3E"/>
<path d="M14.5428 9.06907L11.805 11.8069C11.4565 12.1554 10.9927 12.3477 10.5 12.3477C9.48047 12.3477 8.6543 11.5215 8.6543 10.502C8.6543 10.0093 8.84658 9.54547 9.19505 9.197L11.9329 6.45913C11.4823 6.2988 11.0048 6.19531 10.5 6.19531C8.12556 6.19531 6.19336 8.12752 6.19336 10.502C6.19336 12.8764 8.12556 14.8086 10.5 14.8086C12.8744 14.8086 14.8066 12.8764 14.8066 10.502C14.8066 9.99713 14.7032 9.51963 14.5428 9.06907Z" fill="#AFB1B7"/>
<path d="M16.4063 7.20557L15.4822 8.12961C15.8276 8.85144 16.0371 9.64969 16.0371 10.502C16.0371 13.5553 13.5533 16.0391 10.5 16.0391C7.44667 16.0391 4.96289 13.5553 4.96289 10.502C4.96289 7.44863 7.44667 4.96484 10.5 4.96484C11.3523 4.96484 12.1505 5.17431 12.8723 5.5197L13.7964 4.59566C12.7938 4.03584 11.6564 3.73438 10.5 3.73438C6.76836 3.73438 3.73242 6.77031 3.73242 10.502C3.73242 14.2336 6.76836 17.2695 10.5 17.2695C14.2316 17.2695 17.2676 14.2336 17.2676 10.502C17.2676 9.3456 16.9661 8.20811 16.4063 7.20557Z" fill="#FDAB3E"/>
<path d="M19.6657 5.50901C19.4073 5.73595 19.1018 5.89714 18.7594 5.95362L17.4375 6.17248L17.2904 6.31952C18.0625 7.57382 18.498 9.0186 18.498 10.5C18.498 14.91 14.91 18.498 10.5 18.498C6.09 18.498 2.50195 14.91 2.50195 10.5C2.50195 6.09 6.09 2.50195 10.5 2.50195C11.9814 2.50195 13.4262 2.93754 14.6805 3.70958L14.8274 3.56262L15.0458 2.24122C15.1028 1.89824 15.264 1.59272 15.4909 1.33428C13.9629 0.499816 12.2648 0 10.5 0C4.73279 0 0 4.73279 0 10.5C0 16.2672 4.73279 21 10.5 21C16.2672 21 21 16.2672 21 10.5C21 8.73518 20.5002 7.03713 19.6657 5.50901Z" fill="#AFB1B7"/>
</svg>
