<svg width="21" height="21" viewBox="0 0 21 21" fill="none" xmlns="http://www.w3.org/2000/svg">
<g clip-path="url(#clip0)">
<path d="M11.6632 11.1172H10.7415L9.11072 12.5554L13.0863 20.6815C14.05 20.4374 14.9611 20.0599 15.7985 19.5696L11.6632 11.1172Z" fill="#FDAB3E"/>
<path d="M2.24377 16.9689L10.0264 10.1053L15.2172 1.11234C13.7635 0.383086 12.1481 0 10.5089 0C4.71919 0 0.00891113 4.71028 0.00891113 10.5C0.00891113 12.9381 0.844318 15.1847 2.24377 16.9689Z" fill="#AFB1B7"/>
<path d="M17.5941 11.1172L19.7673 15.4514C20.4678 14.1463 20.9006 12.677 20.9911 11.1172H17.5941Z" fill="#FDAB3E"/>
<path d="M16.2176 11.1172H13.0331L16.8309 18.8801C17.6583 18.2542 18.3907 17.509 19.0018 16.67L16.2176 11.1172Z" fill="#FDAB3E"/>
<path d="M6.94172 20.3744L4.92202 16.2461L3.05835 17.8897C4.14305 18.9831 5.46585 19.8396 6.94172 20.3744Z" fill="#FDAB3E"/>
<path d="M11.8324 20.9177L8.15376 13.3984L5.87903 15.4046L8.52458 20.8122C9.16742 20.9356 9.83061 21.0011 10.5089 21.0011C10.9572 21.0011 11.3988 20.9725 11.8324 20.9177Z" fill="#FDAB3E"/>
<path d="M16.2825 1.72656L11.5745 9.88297H20.9908C20.7956 6.58613 19.0416 3.54778 16.2825 1.72656Z" fill="#AFB1B7"/>
</g>
<defs>
<clipPath id="clip0">
<rect width="21" height="21" fill="white"/>
</clipPath>
</defs>
</svg>
