<svg width="21" height="21" viewBox="0 0 21 21" fill="none" xmlns="http://www.w3.org/2000/svg">
<g clip-path="url(#clip0)">
<path d="M15.2546 6.875L16.6923 9.97727H20.4028L17.4073 7.1754C17.2037 6.98339 16.9347 6.876 16.6549 6.875H15.2546Z" fill="#FDAB3E"/>
<path d="M12.2183 6.875V9.97727H15.8504L14.4128 6.875H12.2183Z" fill="#FDAB3E"/>
<path opacity="0.6" d="M4.00711 13.5938C3.04316 13.5938 2.26172 14.3752 2.26172 15.3391C2.26172 16.3031 3.04316 17.0845 4.00711 17.0845C4.97105 17.0845 5.75249 16.3031 5.75249 15.3391C5.75139 14.3756 4.97062 13.5948 4.00711 13.5938Z" fill="white"/>
<path opacity="0.6" d="M17.0176 13.5938C16.0537 13.5938 15.2722 14.3752 15.2722 15.3391C15.2722 16.3031 16.0537 17.0845 17.0176 17.0845C17.9815 17.0845 18.763 16.3031 18.763 15.3391C18.7619 14.3757 17.9811 13.5948 17.0176 13.5938Z" fill="white"/>
<path opacity="0.6" d="M4.725 10.7397C4.67727 10.7451 4.60888 10.7393 4.55065 10.7393H2.10248C0.94395 10.7439 0.00567955 11.6814 0 12.84V14.0272C0.00572727 14.6379 0.502377 15.13 1.1131 15.1302H1.50742C1.6223 13.7497 2.83457 12.7236 4.21508 12.8385C5.43618 12.9401 6.40514 13.9091 6.50675 15.1302H11.4545V10.7393H4.725V10.7397Z" fill="white"/>
<path opacity="0.6" d="M20.957 10.7393H12.2181V15.1302H14.5179C14.6328 13.7497 15.8451 12.7236 17.2256 12.8385C18.4467 12.9401 19.4156 13.9091 19.5173 15.1302H19.8869C20.4976 15.13 20.9942 14.6379 20.9999 14.0272V11.0109C20.9955 10.919 20.981 10.828 20.957 10.7393Z" fill="white"/>
<path d="M8.64458 7.22775L6.07471 9.97727H11.4545V6.875H9.44936C9.144 6.87681 8.85286 7.00444 8.64458 7.22775Z" fill="#FDAB3E"/>
<path d="M9.47349 4.6777H10.3568V6.49133H11.1205V4.6777H14.9386V6.49133H15.7023V4.6777H16.5972C16.808 4.6777 16.979 4.50674 16.979 4.29588C16.979 4.08502 16.808 3.91406 16.5972 3.91406H9.47349C9.26263 3.91406 9.09167 4.08502 9.09167 4.29588C9.09167 4.50674 9.26263 4.6777 9.47349 4.6777Z" fill="#FDAB3E"/>
</g>
<defs>
<clipPath id="clip0">
<rect width="21" height="21" fill="white"/>
</clipPath>
</defs>
</svg>
