<svg width="21" height="21" viewBox="0 0 21 21" fill="none" xmlns="http://www.w3.org/2000/svg">
<g opacity="0.6">
<path d="M17.9685 11.2104H16.3445C16.51 11.6637 16.6005 12.1528 16.6005 12.6626V18.8006C16.6005 19.0131 16.5635 19.2171 16.4962 19.4069H19.1811C20.184 19.4069 21 18.5909 21 17.588V14.2419C21 12.5704 19.6401 11.2104 17.9685 11.2104Z" fill="white"/>
</g>
<g opacity="0.6">
<path d="M4.39955 12.6626C4.39955 12.1527 4.48999 11.6637 4.65553 11.2104H3.03147C1.35992 11.2104 0 12.5704 0 14.2419V17.588C0 18.5909 0.815926 19.4069 1.81888 19.4069H4.50385C4.43655 19.2171 4.39955 19.0131 4.39955 18.8006V12.6626Z" fill="white"/>
</g>
<path d="M12.3565 9.63086H8.64365C6.9721 9.63086 5.61218 10.9908 5.61218 12.6623V18.8003C5.61218 19.1351 5.88362 19.4066 6.21848 19.4066H14.7816C15.1165 19.4066 15.3879 19.1352 15.3879 18.8003V12.6623C15.3879 10.9908 14.028 9.63086 12.3565 9.63086Z" fill="#FDAB3E"/>
<path d="M10.5 1.59326C8.48971 1.59326 6.85425 3.22872 6.85425 5.23902C6.85425 6.60259 7.60684 7.79348 8.71829 8.41873C9.24546 8.71527 9.85323 8.88475 10.5 8.88475C11.1467 8.88475 11.7545 8.71527 12.2816 8.41873C13.3931 7.79348 14.1457 6.60255 14.1457 5.23902C14.1457 3.22876 12.5102 1.59326 10.5 1.59326Z" fill="#FDAB3E"/>
<g opacity="0.6">
<path d="M4.09822 4.99121C2.59479 4.99121 1.3717 6.2143 1.3717 7.71773C1.3717 9.22116 2.59479 10.4443 4.09822 10.4443C4.47959 10.4443 4.84274 10.3653 5.17263 10.2233C5.74299 9.9777 6.21328 9.54301 6.50429 8.99853C6.70854 8.61638 6.82474 8.18043 6.82474 7.71773C6.82474 6.21434 5.60165 4.99121 4.09822 4.99121Z" fill="white"/>
</g>
<g opacity="0.6">
<path d="M16.9018 4.99121C15.3984 4.99121 14.1753 6.2143 14.1753 7.71773C14.1753 8.18047 14.2915 8.61643 14.4957 8.99853C14.7868 9.54305 15.257 9.97774 15.8274 10.2233C16.1573 10.3653 16.5204 10.4443 16.9018 10.4443C18.4052 10.4443 19.6283 9.22116 19.6283 7.71773C19.6283 6.2143 18.4052 4.99121 16.9018 4.99121Z" fill="white"/>
</g>
</svg>
