<svg xmlns="http://www.w3.org/2000/svg" xmlns:xlink="http://www.w3.org/1999/xlink" width="20" height="20" viewBox="0 0 20 20">
  <defs>
    <clipPath id="clip-path">
      <rect id="Rectangle_851" data-name="Rectangle 851" width="20" height="20" transform="translate(1590 596)" fill="#fff"/>
    </clipPath>
  </defs>
  <g id="invisible" transform="translate(-1590 -596)" opacity="0.3" clip-path="url(#clip-path)">
    <g id="invisible-2" data-name="invisible" transform="translate(1590 596)">
      <g id="Group_1629" data-name="Group 1629">
        <g id="Group_1628" data-name="Group 1628">
          <path id="Path_10949" data-name="Path 10949" d="M9.848,6.833,12.711,9.7l.014-.15A2.729,2.729,0,0,0,10,6.819Z" fill="#fff"/>
          <path id="Path_10950" data-name="Path 10950" d="M10,5a4.546,4.546,0,0,1,4.544,4.544A4.474,4.474,0,0,1,14.22,11.2l2.658,2.658A10.794,10.794,0,0,0,20,9.546,10.755,10.755,0,0,0,10,2.729a10.629,10.629,0,0,0-3.622.636L8.339,5.324A4.567,4.567,0,0,1,10,5Z" fill="#fff"/>
          <path id="Path_10951" data-name="Path 10951" d="M.909,2.524,2.981,4.6l.414.414A10.765,10.765,0,0,0,0,9.546a10.749,10.749,0,0,0,10,6.817,10.656,10.656,0,0,0,3.985-.768l.386.386,2.649,2.654,1.159-1.154L2.068,1.366ZM5.935,7.546l1.4,1.4a2.88,2.88,0,0,0-.068.6A2.729,2.729,0,0,0,10,12.272a2.8,2.8,0,0,0,.591-.068l1.4,1.4a4.471,4.471,0,0,1-2,.482A4.515,4.515,0,0,1,5.935,7.546Z" fill="#fff"/>
        </g>
      </g>
    </g>
  </g>
</svg>
