<svg width="26" height="26" viewBox="0 0 26 26" fill="none" xmlns="http://www.w3.org/2000/svg">
<path d="M19.4999 0C18.987 0 18.5713 0.415735 18.5713 0.928589V2.78571H20.4284V0.928589C20.4285 0.415735 20.0127 0 19.4999 0Z" fill="#A9ACB0"/>
<path d="M6.49988 0C5.98703 0 5.57129 0.415735 5.57129 0.928589V2.78571H7.42842V0.928589C7.42842 0.415735 7.01268 0 6.49988 0Z" fill="#A9ACB0"/>
<path d="M23.2143 2.78555H20.4286V6.49985C20.4286 7.01271 20.0128 7.42844 19.5 7.42844C18.9871 7.42844 18.5714 7.01271 18.5714 6.49985V2.78555H7.42855V6.49985C7.42855 7.01271 7.01281 7.42844 6.49996 7.42844C5.98711 7.42844 5.57137 7.01271 5.57137 6.49985V2.78555H2.78571C1.2472 2.78555 0 4.03276 0 5.57127V23.2141C0 24.7526 1.2472 25.9998 2.78571 25.9998H23.2143C24.7528 25.9998 26 24.7526 26 23.2141V5.57127C26 4.03276 24.7528 2.78555 23.2143 2.78555ZM24.1428 23.2141C24.1428 23.727 23.7271 24.1427 23.2142 24.1427H2.78571C2.27286 24.1427 1.85712 23.727 1.85712 23.2141V11.1427H24.1428V23.2141Z" fill="#A9ACB0"/>
<path d="M20.4283 20.4288H18.5712C18.0583 20.4288 17.6426 20.8445 17.6426 21.3574C17.6426 21.8702 18.0583 22.2859 18.5712 22.2859H20.4283C20.9411 22.2859 21.3569 21.8702 21.3569 21.3574C21.3569 20.8445 20.9411 20.4288 20.4283 20.4288Z" fill="#A9ACB0"/>
<path d="M13.9283 20.4288H12.0712C11.5583 20.4288 11.1426 20.8445 11.1426 21.3574C11.1426 21.8702 11.5583 22.2859 12.0712 22.2859H13.9283C14.4412 22.2859 14.8569 21.8702 14.8569 21.3574C14.8569 20.8445 14.4412 20.4288 13.9283 20.4288Z" fill="#A9ACB0"/>
<path d="M7.4283 20.4288H5.57117C5.05831 20.4288 4.64258 20.8445 4.64258 21.3574C4.64258 21.8702 5.05831 22.2859 5.57117 22.2859H7.4283C7.94115 22.2859 8.35689 21.8702 8.35689 21.3573C8.35689 20.8445 7.94115 20.4288 7.4283 20.4288Z" fill="#A9ACB0"/>
<path d="M20.4283 16.7141H18.5712C18.0583 16.7141 17.6426 17.1298 17.6426 17.6427C17.6426 18.1556 18.0583 18.5713 18.5712 18.5713H20.4283C20.9411 18.5713 21.3569 18.1556 21.3569 17.6427C21.3568 17.1298 20.9411 16.7141 20.4283 16.7141Z" fill="#A9ACB0"/>
<path d="M13.9283 16.7141H12.0712C11.5583 16.7141 11.1426 17.1298 11.1426 17.6427C11.1426 18.1556 11.5583 18.5713 12.0712 18.5713H13.9283C14.4412 18.5713 14.8569 18.1556 14.8569 17.6427C14.8569 17.1298 14.4412 16.7141 13.9283 16.7141Z" fill="#A9ACB0"/>
<path d="M7.4283 16.7141H5.57117C5.05831 16.7141 4.64258 17.1298 4.64258 17.6427C4.64258 18.1556 5.05831 18.5713 5.57117 18.5713H7.4283C7.94115 18.5713 8.35689 18.1556 8.35689 17.6427C8.35689 17.1298 7.94115 16.7141 7.4283 16.7141Z" fill="#A9ACB0"/>
<path d="M20.4283 13.0003H18.5712C18.0583 13.0003 17.6426 13.4161 17.6426 13.9289C17.6426 14.4418 18.0583 14.8575 18.5712 14.8575H20.4283C20.9411 14.8575 21.3569 14.4418 21.3569 13.9289C21.3569 13.4161 20.9411 13.0003 20.4283 13.0003Z" fill="#A9ACB0"/>
<path d="M13.9283 13.0003H12.0712C11.5583 13.0003 11.1426 13.4161 11.1426 13.9289C11.1426 14.4418 11.5583 14.8575 12.0712 14.8575H13.9283C14.4412 14.8575 14.8569 14.4418 14.8569 13.9289C14.8569 13.4161 14.4412 13.0003 13.9283 13.0003Z" fill="#A9ACB0"/>
<path d="M7.4283 13.0003H5.57117C5.05831 13.0003 4.64258 13.4161 4.64258 13.9289C4.64258 14.4418 5.05831 14.8575 5.57117 14.8575H7.4283C7.94115 14.8575 8.35689 14.4418 8.35689 13.9289C8.35689 13.4161 7.94115 13.0003 7.4283 13.0003Z" fill="#A9ACB0"/>
</svg>
