<svg width="40" height="40" viewBox="0 0 40 40" fill="none" xmlns="http://www.w3.org/2000/svg">
<path d="M10.1149 4.82764C10.1149 9.14948 10.1147 13.4711 10.1607 17.747C12.6435 18.2527 14.8962 19.2642 17.1031 20.5056C17.1031 20.2757 16.9199 19.9544 16.9199 19.9085C17.1957 18.851 17.1038 18.1146 17.1498 17.333C17.1498 16.9652 17.1038 16.7355 17.1498 16.3677C17.1498 16.3217 17.1038 16.184 17.1498 16.092C17.2417 15.9541 17.1956 15.8158 17.1956 15.7238C17.2415 15.402 17.5174 15.2188 17.8852 15.0809C18.6208 14.9889 18.7588 14.7127 19.2645 14.4828C19.3565 14.4368 19.4025 14.3905 19.4944 14.3445C19.4944 14.6204 19.2645 15.4022 19.2645 15.678C19.4025 15.6321 19.6322 15.0802 19.7701 15.0342C20.1379 14.8962 20.2295 15.7703 20.3215 15.8163C20.4134 15.6324 21.0576 14.3909 21.1036 14.2529C21.0117 14.3449 20.3678 14.759 20.2299 14.851C19.954 15.0349 19.954 15.0802 19.7701 14.8043C19.6322 14.6204 19.6322 14.4828 19.5402 14.2529C19.4483 14.023 19.4023 13.9772 19.3103 13.7474C19.2643 13.6554 19.2642 13.425 19.1262 13.425C19.0343 13.287 18.9881 13.2414 18.9421 13.1035C18.8042 12.7357 18.759 12.5054 18.9888 12.5054C19.0348 12.3675 18.8962 12.0457 18.9421 11.8158C19.0801 11.0802 19.4941 10.7127 20.2757 10.8046C21.563 10.9426 21.1954 12.0001 21.3793 12.4138C21.4253 12.4598 21.5176 12.4135 21.5176 12.5054C21.5636 12.6893 21.4711 12.8733 21.4251 12.9652C21.3791 13.0572 21.3793 13.1958 21.3793 13.2418C21.2873 13.4257 21.287 13.1035 21.241 13.5633C21.195 13.6552 21.1954 13.7928 21.1494 13.8847C21.1494 14.2985 22.0688 14.437 22.3446 14.6669C22.4826 14.7589 22.8042 14.8046 23.0801 14.9426C23.3559 15.0805 23.4486 15.4481 23.3567 15.9079C23.3107 15.9999 23.4483 16.3677 23.4483 16.5976C23.5402 17.4252 23.6783 18.4828 23.8622 19.3104C23.8162 19.6782 23.7241 19.7703 23.6781 20.1841C25.5172 19.1267 27.908 18.2526 29.885 17.7928V4.82764C26.3908 5.51729 23.0345 6.66672 20 8.73568C17.1494 6.94258 14.0689 5.42534 10.1149 4.82764ZM25.1957 23.7698V26.7583C24.8279 26.4365 24.3218 26.2985 23.6781 26.2985C22.8506 26.2985 22.2069 26.6209 21.6092 27.3106C21.0115 28.0002 20.7354 28.828 20.7354 29.7935C20.7354 30.759 20.9651 31.4947 21.4709 32.0924C21.9766 32.6901 22.6207 32.9652 23.4483 32.9652C24.2299 32.9652 24.7819 32.7359 25.1957 32.368V32.8278H26.3452V23.7698H25.1957ZM12.5979 23.9539C12.414 23.9539 12.2302 23.9999 12.0923 24.1838C11.9544 24.3217 11.9082 24.5054 11.9082 24.6893C11.9082 24.8733 11.9544 25.0579 12.0923 25.1958C12.2302 25.3337 12.414 25.4257 12.5979 25.4257C12.7818 25.4257 12.9655 25.3337 13.1034 25.1958C13.2414 25.0579 13.3333 24.8733 13.3333 24.6893C13.3333 24.5054 13.2414 24.3217 13.1034 24.1838C12.9655 24.0458 12.7818 23.9539 12.5979 23.9539ZM1.70077 24.0464L0.0457764 32.8278H1.1952L2.20723 27.1723L5.19574 32.9194H5.47142L8.36744 27.1723L9.42527 32.8278H10.5747L8.78141 24.0464H8.23004L5.33313 30.4832L2.25303 24.0464H1.70077ZM19.0346 25.8855L18.4824 26.5751C18.1605 26.2993 17.6552 26.1612 17.0115 26.1612C16.3218 26.1612 15.7238 26.391 15.264 26.8508C14.8042 27.3106 14.5743 27.8619 14.5743 28.5516C14.5743 29.6091 15.0341 30.3451 15.9536 30.7589C15.6318 30.8508 15.4023 30.9422 15.1724 31.1261C14.9425 31.31 14.8509 31.4943 14.8509 31.7242C14.8509 32.4598 15.3107 32.782 16.2302 32.782C16.4141 32.782 16.6896 32.7355 17.0115 32.6895C17.3333 32.6436 17.5632 32.5979 17.7011 32.5979C18.4827 32.5979 18.8506 32.8734 18.8506 33.3792C18.8506 33.6091 18.7126 33.8391 18.3908 34.023C18.0689 34.2069 17.6555 34.2987 17.1498 34.2987C16.598 34.2987 15.9544 34.1146 15.3107 33.6549L14.7126 34.5744C14.9885 34.8043 15.3565 34.9886 15.8163 34.9426C16.276 35.0805 16.736 35.1725 17.1498 35.1725C17.9774 35.1725 18.6203 34.9889 19.172 34.6211C19.6778 34.2533 19.9542 33.7928 19.9542 33.1951C19.9542 32.6893 19.7697 32.2759 19.4019 31.9541C19.0801 31.6322 18.5747 31.4943 17.931 31.4943C17.7471 31.4943 17.4709 31.5399 17.1031 31.5859C16.7353 31.6319 16.4599 31.6784 16.276 31.6784C15.8622 31.6784 15.678 31.6324 15.678 31.4485C15.678 31.3566 15.7697 31.2648 15.9536 31.1728C16.1376 31.0809 16.3215 31.0345 16.4134 31.0345L17.333 30.9429C18.0226 30.897 18.5284 30.6664 18.9421 30.2066C19.3559 29.7468 19.5402 29.1953 19.5402 28.5516C19.5402 27.9539 19.3563 27.4485 19.0804 27.0807L19.7701 26.5751L19.0346 25.8855ZM30.5289 26.2069C29.7013 26.2069 29.0576 26.529 28.4599 27.0807C27.8162 27.7244 27.4946 28.5978 27.4946 29.6552C27.4946 30.6667 27.7705 31.4947 28.4141 32.0924C28.9659 32.6441 29.6555 32.9194 30.4831 32.9194C31.0348 32.9194 31.54 32.8276 31.9998 32.6437C32.3676 32.5058 32.6438 32.3679 32.8277 32.184L32.368 31.356C31.9542 31.7698 31.4025 31.9541 30.7588 31.9541C30.1611 31.9541 29.7015 31.8163 29.3337 31.4485C28.9199 31.0347 28.7356 30.4367 28.7356 29.701H33.3791C33.4251 29.5171 33.4709 29.2874 33.4249 28.9656C33.4249 28.138 33.1952 27.4939 32.6895 26.9882C32.1837 26.4825 31.4484 26.2069 30.5289 26.2069ZM11.1261 26.391V27.3564H11.9998V32.8278H13.1492V26.391H11.1261ZM34.1146 26.4368L36.276 29.5169L33.9314 32.8278H35.264L36.9199 30.4365L38.5749 32.8278V32.8736H39.9542L37.6095 29.5169L39.7243 26.4368H38.4366L36.9199 28.5974L35.4023 26.4368H34.1146ZM17.1498 27.1723C17.5176 27.1723 17.7934 27.3104 18.0693 27.5863C18.2992 27.8621 18.4366 28.1836 18.4366 28.5974C18.4366 29.1031 18.345 29.471 18.1151 29.7468C17.8852 30.0227 17.5636 30.1608 17.1498 30.1608C16.736 30.1608 16.4134 29.9769 16.1835 29.701C15.9536 29.4252 15.8163 29.0572 15.8163 28.5974C15.8163 28.2296 15.9536 27.8621 16.1835 27.5863C16.4134 27.3104 16.736 27.1723 17.1498 27.1723ZM23.9996 27.2181C24.5054 27.2181 24.9199 27.4481 25.1957 27.8619V31.4027C25.1498 31.5406 24.9659 31.678 24.736 31.77C24.5061 31.9079 24.276 31.9541 24.0921 31.9541C22.6668 31.9541 21.9774 31.2184 21.9774 29.6552C21.9774 28.9196 22.1609 28.3675 22.5287 27.9077C22.8965 27.448 23.4019 27.2181 23.9996 27.2181ZM30.6205 27.2181C31.1722 27.2181 31.5862 27.4025 31.954 27.7703C32.2299 28.0462 32.368 28.46 32.368 28.9198H28.7814C28.8274 28.414 29.0118 28.0464 29.3337 27.7245C29.7015 27.4027 30.1147 27.2181 30.6205 27.2181Z" fill="url(#paint0_linear)"/>
<defs>
<linearGradient id="paint0_linear" x1="36.2033" y1="43.4935" x2="3.81635" y2="11.1066" gradientUnits="userSpaceOnUse">
<stop stop-color="#FDC830"/>
<stop offset="0.1884" stop-color="#FCC230"/>
<stop offset="0.4334" stop-color="#FAB231"/>
<stop offset="0.7096" stop-color="#F79733"/>
<stop offset="1" stop-color="#F37335"/>
</linearGradient>
</defs>
</svg>
