<svg width="21" height="21" viewBox="0 0 21 21" fill="none" xmlns="http://www.w3.org/2000/svg">
<path d="M4.93701 16.0627V1.85083C4.93701 1.51106 4.66155 1.2356 4.32178 1.2356H1.85059C1.51081 1.2356 1.23535 1.51106 1.23535 1.85083V16.0627H4.93701Z" fill="white"/>
<path d="M14.8218 16.0627V4.32202C14.8218 3.98225 14.5463 3.70679 14.2065 3.70679H11.7354C11.3956 3.70679 11.1201 3.98225 11.1201 4.32202V16.0627H14.8218Z" fill="white"/>
<path d="M9.87939 16.0627V6.79321C9.87939 6.45344 9.60393 6.17798 9.26416 6.17798H6.79297C6.4532 6.17798 6.17773 6.45344 6.17773 6.79321V16.0627H9.87939Z" fill="#F37335"/>
<path d="M19.7642 16.0627V9.2644C19.7642 8.92463 19.4887 8.64917 19.1489 8.64917H16.6777C16.338 8.64917 16.0625 8.92463 16.0625 9.2644V16.0627H19.7642Z" fill="#F37335"/>
<path d="M0 17.2932V19.1492C0 19.4889 0.275461 19.7644 0.615234 19.7644H20.3848C20.7245 19.7644 21 19.4889 21 19.1492V17.2932H0Z" fill="white"/>
</svg>
