<svg width="19" height="19" viewBox="0 0 19 19" fill="none" xmlns="http://www.w3.org/2000/svg">
<g opacity="0.6">
<path d="M9.5 0C4.2619 0 0 4.2619 0 9.5C0 14.7381 4.2619 19 9.5 19C14.7381 19 19 14.7381 19 9.5C19 4.2619 14.7381 0 9.5 0ZM14.8095 7L8.7381 13.0238C8.38095 13.381 7.80952 13.4048 7.42857 13.0476L4.21429 10.119C3.83333 9.76191 3.80952 9.16667 4.14286 8.78571C4.5 8.40476 5.09524 8.38095 5.47619 8.7381L8.02381 11.0714L13.4524 5.64286C13.8333 5.26191 14.4286 5.26191 14.8095 5.64286C15.1905 6.02381 15.1905 6.61905 14.8095 7Z" fill="white"/>
</g>
</svg>
