<svg width="19" height="19" viewBox="0 0 19 19" fill="none" xmlns="http://www.w3.org/2000/svg">
<g opacity="0.6" clip-path="url(#clip0)">
<path d="M17.7268 4.75093L15.5222 3.47807L14.2497 1.27384H11.7044L9.49981 0.000976562L7.29524 1.27384H4.7499L3.47704 3.4784L1.27286 4.75093V7.29627L0 9.50084L1.27286 11.7054V14.2507L3.47743 15.5236L4.75029 17.7282H7.29563L9.49986 19.0007L11.7044 17.7278H14.2498L15.5226 15.5233L17.7272 14.2504V11.7051L19.0001 9.50051L17.7272 7.29594V4.75093H17.7268ZM8.6424 13.389C8.46527 13.5662 8.2319 13.6523 7.99958 13.649C7.76721 13.6523 7.53389 13.5662 7.35676 13.389L4.57839 10.6107C4.23035 10.2626 4.23035 9.69802 4.57839 9.34998L5.31391 8.61446C5.66195 8.26642 6.22655 8.26642 6.57459 8.61446L7.99958 10.0394L12.4248 5.6139C12.7728 5.26586 13.3374 5.26586 13.6855 5.6139L14.421 6.34942C14.769 6.69746 14.769 7.26207 14.421 7.61011L8.6424 13.389Z" fill="white"/>
</g>
<defs>
<clipPath id="clip0">
<rect width="19" height="19" fill="white"/>
</clipPath>
</defs>
</svg>
