<svg width="24" height="26" viewBox="0 0 24 26" fill="none" xmlns="http://www.w3.org/2000/svg">
<path d="M22.0804 16.0245L20.1575 14.1015L11.5045 5.449C9.90981 3.86622 7.3356 3.87099 5.74685 5.45974C4.1581 7.04849 4.15332 9.6227 5.7361 11.2174L14.3886 19.8725C14.7425 20.2266 15.3166 20.2266 15.6707 19.8725C16.0246 19.5185 16.0246 18.9446 15.6707 18.5905L7.01813 9.93539C6.13319 9.05046 6.13319 7.61596 7.01813 6.73102C7.90307 5.84608 9.33756 5.84608 10.2225 6.73102L18.8776 15.3836L20.8006 17.3063C22.3937 18.9 22.3931 21.4834 20.7996 23.0763C19.2058 24.6693 16.6227 24.6689 15.0296 23.0751L13.4275 21.4724L4.45428 12.4993L3.81316 11.8583C1.57235 9.54746 1.60081 5.86599 3.87686 3.58975C6.1531 1.3137 9.83457 1.28524 12.1454 3.52605L21.7596 13.1404C21.9886 13.3693 22.3224 13.4586 22.6351 13.3748C22.948 13.291 23.1925 13.0468 23.2763 12.7339C23.36 12.421 23.2705 12.0874 23.0416 11.8583L13.4275 2.24422C10.4166 -0.752945 5.54781 -0.747372 2.54387 2.25676C-0.460262 5.2607 -0.465835 10.1295 2.53133 13.1404L12.1454 22.7545L13.7499 24.3572C16.0638 26.5797 19.7307 26.5426 21.999 24.2736C24.2675 22.0047 24.3035 18.3377 22.0804 16.0245Z" fill="white"/>
</svg>
