<svg width="21" height="21" viewBox="0 0 21 21" fill="none" xmlns="http://www.w3.org/2000/svg">
<path d="M2.40382 11.0682C2.11929 10.743 2.11929 10.2575 2.40382 9.93238C9.09758 2.28238 8.73404 2.74316 8.73404 2.61511C8.73404 1.82463 7.75308 1.45041 7.22703 2.04212L0.217858 9.92729C-0.0726195 10.2541 -0.0726195 10.7465 0.217858 11.0733L7.22703 18.9584C7.75193 19.5489 8.73404 19.1755 8.73404 18.3854C8.73404 18.2616 9.10653 18.7284 2.40382 11.0682Z" fill="#F37335"/>
<path d="M15.7572 7.44765H13.1148V2.61511C13.1148 1.82463 12.1339 1.45041 11.6078 2.04212C10.7997 2.95126 4.76207 9.85665 4.76683 9.85123C4.44165 10.2229 4.44165 10.7777 4.76683 11.1493C12.028 19.4478 10.8879 18.1486 11.6078 18.9584C12.133 19.5492 13.1148 19.1772 13.1148 18.3854V13.5529H15.7567C17.1985 13.5529 18.186 14.1624 18.7756 15.4162C19.2566 16.439 19.275 17.5064 19.2751 17.5144C19.2778 17.9889 19.6633 18.3719 20.1375 18.3719C20.6125 18.3719 21 17.9871 21 17.5094V12.6905C21 9.79496 18.6527 7.44765 15.7572 7.44765Z" fill="#AAACB2"/>
</svg>
