<svg width="19" height="19" viewBox="0 0 19 19" fill="none" xmlns="http://www.w3.org/2000/svg">
<g opacity="0.6">
<g clip-path="url(#clip0)">
<path d="M17.3036 15.2647V1.69629L16.7859 1.73969C14.7096 1.91132 12.6731 2.40766 10.7507 3.21082L9.83936 3.5892V17.104L10.503 16.8281C12.4923 16.0005 14.5986 15.4884 16.7458 15.3101L17.3036 15.2647Z" fill="white"/>
<path d="M19 3.70239H17.9822V15.5774C17.9828 15.7543 17.8472 15.9021 17.6707 15.9167L16.8018 15.9879C16.551 16.0086 16.3008 16.0343 16.0517 16.065C15.9708 16.0747 15.8905 16.0876 15.8101 16.0989C15.6421 16.1213 15.4745 16.144 15.3073 16.1705C15.2099 16.1861 15.1132 16.2043 15.0161 16.2213C14.8665 16.2475 14.7166 16.2735 14.5673 16.303C14.4654 16.3234 14.3637 16.3463 14.2598 16.3683C14.1177 16.3984 13.9755 16.4293 13.8344 16.4629C13.7285 16.4881 13.623 16.5147 13.5178 16.5416C13.3804 16.5755 13.2438 16.6121 13.1073 16.6503C13.0011 16.6794 12.8949 16.7102 12.789 16.7414C12.6533 16.7815 12.5196 16.8222 12.3856 16.865C12.2808 16.8989 12.1757 16.9329 12.0712 16.9667C11.937 17.0119 11.8035 17.0586 11.6704 17.1068C11.5687 17.1438 11.4668 17.1809 11.3628 17.2198C11.3162 17.2375 11.27 17.2564 11.2236 17.2745H19V3.70239Z" fill="white"/>
<path d="M2.214 1.73969L1.69629 1.69629V15.2657L2.29849 15.3169C4.44437 15.4963 6.54884 16.0116 8.53485 16.8437L9.16057 17.104V3.5892L8.25024 3.21115C6.32767 2.40783 4.2908 1.91132 2.214 1.73969Z" fill="white"/>
<path d="M0 3.70239V17.2738H7.78187C7.74012 17.2574 7.69837 17.2399 7.65629 17.2243C7.55921 17.1873 7.4613 17.1521 7.36356 17.1164C7.22573 17.0664 7.08806 17.0177 6.94923 16.9711C6.84883 16.9372 6.74811 16.9042 6.64722 16.8721C6.50955 16.8269 6.37138 16.7843 6.23305 16.7445C6.13117 16.7147 6.02945 16.6847 5.92773 16.6562C5.78823 16.6176 5.64841 16.581 5.50826 16.5451C5.40654 16.5189 5.30465 16.4927 5.20061 16.4683C5.05847 16.4344 4.9155 16.4032 4.7727 16.3726C4.67098 16.3506 4.56909 16.3282 4.46737 16.3078C4.31943 16.2787 4.17083 16.2525 4.02223 16.2265C3.92481 16.2094 3.8274 16.1925 3.72982 16.1751C3.56581 16.1491 3.40131 16.1271 3.2368 16.1049C3.15363 16.0938 3.07113 16.0805 2.98813 16.0711C2.7393 16.0409 2.49047 16.0153 2.24164 15.994L1.32832 15.9167C1.15221 15.9016 1.01719 15.754 1.01786 15.5774V3.70239H0Z" fill="white"/>
</g>
</g>
<defs>
<clipPath id="clip0">
<rect width="19" height="19" fill="white"/>
</clipPath>
</defs>
</svg>
