<svg width="21" height="21" viewBox="0 0 21 21" fill="none" xmlns="http://www.w3.org/2000/svg">
<path opacity="0.6" d="M19.125 16.8717V1.875L18.5528 1.92297C16.2579 2.11267 14.007 2.66125 11.8823 3.54895L10.875 3.96716V18.9045L11.6085 18.5997C13.8073 17.6849 16.1353 17.1189 18.5085 16.9219L19.125 16.8717Z" fill="white"/>
<path d="M21 4.09229H19.875V17.2173C19.8757 17.4128 19.7258 17.5762 19.5308 17.5923L18.5704 17.671C18.2932 17.6939 18.0167 17.7223 17.7413 17.7562C17.6519 17.767 17.5631 17.7813 17.4743 17.7937C17.2886 17.8184 17.1033 17.8435 16.9186 17.8728C16.8109 17.89 16.704 17.9102 16.5967 17.929C16.4313 17.9579 16.2656 17.9867 16.1006 18.0193C15.988 18.0418 15.8756 18.0671 15.7608 18.0914C15.6037 18.1248 15.4466 18.1588 15.2906 18.196C15.1736 18.2238 15.0569 18.2533 14.9407 18.283C14.7889 18.3205 14.6378 18.361 14.4869 18.4031C14.3696 18.4353 14.2522 18.4694 14.1352 18.5038C13.9852 18.5481 13.8375 18.5931 13.6893 18.6404C13.5734 18.6779 13.4573 18.7155 13.3418 18.7528C13.1935 18.8028 13.0459 18.8544 12.8989 18.9077C12.7864 18.9485 12.6738 18.9896 12.5588 19.0326C12.5074 19.0522 12.4563 19.0731 12.405 19.093H21V4.09229Z" fill="#F37335"/>
<path opacity="0.6" d="M2.4472 1.92297L1.875 1.875V16.8728L2.54059 16.9294C4.91235 17.1277 7.23834 17.6971 9.43341 18.6169L10.125 18.9045V3.96716L9.11884 3.54932C6.9939 2.66144 4.74261 2.11267 2.4472 1.92297Z" fill="white"/>
<path d="M0 4.09229V19.0923H8.60101C8.55487 19.0742 8.50873 19.0548 8.46222 19.0375C8.35492 18.9967 8.2467 18.9577 8.13867 18.9183C7.98633 18.863 7.83417 18.8092 7.68073 18.7578C7.56976 18.7202 7.45844 18.6838 7.34692 18.6483C7.19476 18.5983 7.04205 18.5512 6.88916 18.5073C6.77655 18.4743 6.66412 18.4412 6.5517 18.4097C6.39752 18.367 6.24298 18.3265 6.08807 18.2868C5.97565 18.2579 5.86304 18.2289 5.74805 18.202C5.59094 18.1645 5.43292 18.1301 5.27509 18.0962C5.16266 18.0718 5.05005 18.0471 4.93762 18.0246C4.77411 17.9924 4.60986 17.9634 4.44562 17.9347C4.33795 17.9158 4.23029 17.8972 4.12244 17.8779C3.94116 17.8492 3.75934 17.8248 3.57751 17.8003C3.4856 17.788 3.39441 17.7734 3.30267 17.7629C3.02765 17.7296 2.75262 17.7012 2.4776 17.6778L1.46814 17.5923C1.2735 17.5756 1.12427 17.4125 1.125 17.2173V4.09229H0Z" fill="#F37335"/>
</svg>
