<svg width="21" height="21" viewBox="0 0 21 21" fill="none" xmlns="http://www.w3.org/2000/svg">
<g opacity="0.6">
<path d="M17.7188 1.3125H16.4062V0.65625C16.4062 0.293508 16.1127 0 15.75 0C15.3873 0 15.0938 0.293508 15.0938 0.65625V1.3125H12.4688V0.65625C12.4688 0.293508 12.1752 0 11.8125 0C11.4498 0 11.1562 0.293508 11.1562 0.65625V1.3125H8.53125V0.65625C8.53125 0.293508 8.23774 0 7.875 0C7.51226 0 7.21875 0.293508 7.21875 0.65625V1.3125H4.59375V0.65625C4.59375 0.293508 4.30024 0 3.9375 0C3.57476 0 3.28125 0.293508 3.28125 0.65625V1.3125H1.96875C0.883148 1.3125 0 2.19565 0 3.28125V19.0312C0 19.394 0.293508 19.6875 0.65625 19.6875H11.4998C10.8696 18.7482 10.5 17.6199 10.5 16.4062C10.5 13.1494 13.1494 10.5 16.4062 10.5C17.6199 10.5 18.7482 10.8696 19.6875 11.4998V3.28125C19.6875 2.19565 18.8044 1.3125 17.7188 1.3125ZM4.59375 17.0625H3.28125C2.91851 17.0625 2.625 16.769 2.625 16.4062C2.625 16.0435 2.91851 15.75 3.28125 15.75H4.59375C4.95649 15.75 5.25 16.0435 5.25 16.4062C5.25 16.769 4.95649 17.0625 4.59375 17.0625ZM4.59375 14.4375H3.28125C2.91851 14.4375 2.625 14.144 2.625 13.7812C2.625 13.4185 2.91851 13.125 3.28125 13.125H4.59375C4.95649 13.125 5.25 13.4185 5.25 13.7812C5.25 14.144 4.95649 14.4375 4.59375 14.4375ZM4.59375 11.8125H3.28125C2.91851 11.8125 2.625 11.519 2.625 11.1562C2.625 10.7935 2.91851 10.5 3.28125 10.5H4.59375C4.95649 10.5 5.25 10.7935 5.25 11.1562C5.25 11.519 4.95649 11.8125 4.59375 11.8125ZM4.59375 9.1875H3.28125C2.91851 9.1875 2.625 8.89399 2.625 8.53125C2.625 8.16851 2.91851 7.875 3.28125 7.875H4.59375C4.95649 7.875 5.25 8.16851 5.25 8.53125C5.25 8.89399 4.95649 9.1875 4.59375 9.1875ZM8.53125 17.0625H7.21875C6.85601 17.0625 6.5625 16.769 6.5625 16.4062C6.5625 16.0435 6.85601 15.75 7.21875 15.75H8.53125C8.89399 15.75 9.1875 16.0435 9.1875 16.4062C9.1875 16.769 8.89399 17.0625 8.53125 17.0625ZM8.53125 14.4375H7.21875C6.85601 14.4375 6.5625 14.144 6.5625 13.7812C6.5625 13.4185 6.85601 13.125 7.21875 13.125H8.53125C8.89399 13.125 9.1875 13.4185 9.1875 13.7812C9.1875 14.144 8.89399 14.4375 8.53125 14.4375ZM8.53125 11.8125H7.21875C6.85601 11.8125 6.5625 11.519 6.5625 11.1562C6.5625 10.7935 6.85601 10.5 7.21875 10.5H8.53125C8.89399 10.5 9.1875 10.7935 9.1875 11.1562C9.1875 11.519 8.89399 11.8125 8.53125 11.8125ZM8.53125 9.1875H7.21875C6.85601 9.1875 6.5625 8.89399 6.5625 8.53125C6.5625 8.16851 6.85601 7.875 7.21875 7.875H8.53125C8.89399 7.875 9.1875 8.16851 9.1875 8.53125C9.1875 8.89399 8.89399 9.1875 8.53125 9.1875ZM12.4688 11.8125H11.1562C10.7935 11.8125 10.5 11.519 10.5 11.1562C10.5 10.7935 10.7935 10.5 11.1562 10.5H12.4688C12.8315 10.5 13.125 10.7935 13.125 11.1562C13.125 11.519 12.8315 11.8125 12.4688 11.8125ZM12.4688 9.1875H11.1562C10.7935 9.1875 10.5 8.89399 10.5 8.53125C10.5 8.16851 10.7935 7.875 11.1562 7.875H12.4688C12.8315 7.875 13.125 8.16851 13.125 8.53125C13.125 8.89399 12.8315 9.1875 12.4688 9.1875ZM16.4062 9.1875H15.0938C14.731 9.1875 14.4375 8.89399 14.4375 8.53125C14.4375 8.16851 14.731 7.875 15.0938 7.875H16.4062C16.769 7.875 17.0625 8.16851 17.0625 8.53125C17.0625 8.89399 16.769 9.1875 16.4062 9.1875ZM18.375 5.25H1.3125V3.28125C1.3125 2.91916 1.60666 2.625 1.96875 2.625H3.28125V3.28125C3.28125 3.64399 3.57476 3.9375 3.9375 3.9375C4.30024 3.9375 4.59375 3.64399 4.59375 3.28125V2.625H7.21875V3.28125C7.21875 3.64399 7.51226 3.9375 7.875 3.9375C8.23774 3.9375 8.53125 3.64399 8.53125 3.28125V2.625H11.1562V3.28125C11.1562 3.64399 11.4498 3.9375 11.8125 3.9375C12.1752 3.9375 12.4688 3.64399 12.4688 3.28125V2.625H15.0938V3.28125C15.0938 3.64399 15.3873 3.9375 15.75 3.9375C16.1127 3.9375 16.4062 3.64399 16.4062 3.28125V2.625H17.7188C18.0808 2.625 18.375 2.91916 18.375 3.28125V5.25Z" fill="white"/>
</g>
<path d="M16.4062 11.8125C13.8735 11.8125 11.8125 13.8735 11.8125 16.4062C11.8125 18.939 13.8735 21 16.4062 21C18.939 21 21 18.939 21 16.4062C21 13.8735 18.939 11.8125 16.4062 11.8125ZM19.0312 17.0625H16.4062C16.0435 17.0625 15.75 16.769 15.75 16.4062V13.7812C15.75 13.4185 16.0435 13.125 16.4062 13.125C16.769 13.125 17.0625 13.4185 17.0625 13.7812V15.75H19.0312C19.394 15.75 19.6875 16.0435 19.6875 16.4062C19.6875 16.769 19.394 17.0625 19.0312 17.0625Z" fill="#F37335"/>
</svg>
