<svg width="21" height="21" viewBox="0 0 21 21" fill="none" xmlns="http://www.w3.org/2000/svg">
<g clip-path="url(#clip0)">
<path d="M18.8978 18.0127C21.994 14.4414 21.614 9.05585 18.1208 5.93018C19.915 12.2176 15.1705 18.4982 8.63374 18.4982C8.50791 18.4982 9.26735 18.5026 6.276 18.4842C7.91207 20.1126 10.0912 21.0001 12.366 21.0001C12.3719 21.0001 20.3823 20.9592 20.3871 20.9591C20.9339 20.9565 21.2063 20.291 20.8162 19.906L18.8978 18.0127Z" fill="#F37335"/>
<path opacity="0.6" d="M8.63355 17.2676C13.394 17.2676 17.2669 13.3945 17.2669 8.63379C17.2669 3.87311 13.394 0 8.63355 0C3.87307 0 0.000256144 3.87311 0.000256144 8.63379C0.000256144 10.7296 0.742147 12.7118 2.10177 14.2801L0.183309 16.1734C-0.205519 16.5572 0.0638303 17.2239 0.612537 17.2266C0.616762 17.2266 8.62937 17.2676 8.63355 17.2676ZM4.96286 5.57812H12.3453C12.685 5.57812 12.9605 5.85359 12.9605 6.19336C12.9605 6.53313 12.685 6.80859 12.3453 6.80859H4.96286C4.62309 6.80859 4.34767 6.53313 4.34767 6.19336C4.34767 5.85359 4.62313 5.57812 4.96286 5.57812ZM4.96286 8.03906H12.3453C12.685 8.03906 12.9605 8.31452 12.9605 8.6543C12.9605 8.99407 12.685 9.26953 12.3453 9.26953H4.96286C4.62309 9.26953 4.34767 8.99407 4.34767 8.6543C4.34767 8.31452 4.62313 8.03906 4.96286 8.03906ZM4.34767 11.1152C4.34767 10.7755 4.62309 10.5 4.96286 10.5H12.3453C12.685 10.5 12.9605 10.7755 12.9605 11.1152C12.9605 11.455 12.685 11.7305 12.3453 11.7305H4.96286C4.62313 11.7305 4.34767 11.455 4.34767 11.1152Z" fill="white"/>
</g>
<defs>
<clipPath id="clip0">
<rect width="21" height="21" fill="white"/>
</clipPath>
</defs>
</svg>
