<svg width="19" height="19" viewBox="0 0 19 19" fill="none" xmlns="http://www.w3.org/2000/svg">
<g opacity="0.6" clip-path="url(#clip0)">
<path d="M17.0974 16.297C19.8988 13.0659 19.555 8.19323 16.3944 5.36523C18.0178 11.0539 13.7252 16.7363 7.81093 16.7363C7.69708 16.7363 8.3842 16.7403 5.67773 16.7236C7.15799 18.197 9.12954 19 11.1877 19C11.1931 19 18.4406 18.9629 18.4449 18.9629C18.9397 18.9605 19.1861 18.3583 18.8332 18.01L17.0974 16.297Z" fill="white"/>
<path d="M7.81153 15.623C12.1186 15.623 15.6226 12.1188 15.6226 7.81152C15.6226 3.50424 12.1186 0 7.81153 0C3.50443 0 0.000452638 3.50424 0.000452638 7.81152C0.000452638 9.70778 0.671687 11.5012 1.90183 12.9201L0.166072 14.6331C-0.185725 14.9803 0.0579721 15.5835 0.554421 15.5859C0.558244 15.586 7.80774 15.623 7.81153 15.623ZM4.49043 5.04688H11.1697C11.4772 5.04688 11.7263 5.2961 11.7263 5.60352C11.7263 5.91093 11.4772 6.16016 11.1697 6.16016H4.49043C4.18301 6.16016 3.93382 5.91093 3.93382 5.60352C3.93382 5.2961 4.18305 5.04688 4.49043 5.04688ZM4.49043 7.27344H11.1697C11.4772 7.27344 11.7263 7.52266 11.7263 7.83008C11.7263 8.13749 11.4772 8.38672 11.1697 8.38672H4.49043C4.18301 8.38672 3.93382 8.13749 3.93382 7.83008C3.93382 7.52266 4.18305 7.27344 4.49043 7.27344ZM3.93382 10.0566C3.93382 9.74923 4.18301 9.5 4.49043 9.5H11.1697C11.4772 9.5 11.7263 9.74923 11.7263 10.0566C11.7263 10.3641 11.4772 10.6133 11.1697 10.6133H4.49043C4.18305 10.6133 3.93382 10.3641 3.93382 10.0566Z" fill="white"/>
</g>
<defs>
<clipPath id="clip0">
<rect width="19" height="19" fill="white"/>
</clipPath>
</defs>
</svg>
