<svg width="20" height="20" viewBox="0 0 20 20" fill="none" xmlns="http://www.w3.org/2000/svg">
<path d="M10 20C7.32891 20 4.8177 18.9598 2.92891 17.0711C1.0402 15.1823 0 12.6711 0 10C0 7.32891 1.0402 4.8177 2.92891 2.92891C4.8177 1.0402 7.32891 0 10 0C12.6711 0 15.1823 1.0402 17.0711 2.92891C18.9598 4.8177 20 7.32891 20 10C20 12.6711 18.9598 15.1823 17.0711 17.0711C15.1823 18.9598 12.6711 20 10 20ZM10 1.17188C7.64191 1.17188 5.425 2.09016 3.75758 3.75758C2.09016 5.425 1.17188 7.64191 1.17188 10C1.17188 12.3581 2.09016 14.575 3.75758 16.2424C5.425 17.9098 7.64191 18.8281 10 18.8281C12.3581 18.8281 14.575 17.9098 16.2424 16.2424C17.9098 14.575 18.8281 12.3581 18.8281 10C18.8281 7.64191 17.9098 5.425 16.2424 3.75758C14.575 2.09016 12.3581 1.17188 10 1.17188Z" fill="white"/>
<path d="M9.41406 2.34521H10.5859V3.90897H9.41406V2.34521Z" fill="white"/>
<path d="M13.8907 5.2793L14.9963 4.17373L15.8248 5.00224L14.7193 6.10781L13.8907 5.2793Z" fill="white"/>
<path d="M16.0909 9.41406H17.6547V10.5859H16.0909V9.41406Z" fill="white"/>
<path d="M13.8896 14.7217L14.7182 13.8932L15.8237 14.9987L14.9952 15.8273L13.8896 14.7217Z" fill="white"/>
<path d="M9.41406 16.0908H10.5859V17.6546H9.41406V16.0908Z" fill="white"/>
<path d="M4.17065 14.9976L5.27623 13.892L6.10475 14.7205L4.99917 15.8261L4.17065 14.9976Z" fill="white"/>
<path d="M2.34509 9.41406H3.90885V10.5859H2.34509V9.41406Z" fill="white"/>
<path d="M4.172 5.00146L5.00051 4.17295L6.10609 5.27852L5.27757 6.10704L4.172 5.00146Z" fill="white"/>
<path d="M14.1364 10.5861H9.41406V5.86377H10.5859V9.41424H14.1364V10.5861Z" fill="white"/>
</svg>
