<svg width="21" height="21" viewBox="0 0 21 21" fill="none" xmlns="http://www.w3.org/2000/svg">
<path d="M17.6268 1.41504H3.35267C1.86024 1.41504 0.645996 2.62928 0.645996 4.12171V12.8572C0.645996 14.3467 1.85496 15.5588 3.34305 15.5638V19.5281L9.03962 15.5642H17.6268C19.1192 15.5642 20.3335 14.35 20.3335 12.8572V4.12171C20.3335 2.62928 19.1192 1.41504 17.6268 1.41504ZM15.0641 11.5668H5.91538V10.4132H15.0641V11.5668ZM15.0641 9.10582H5.91538V7.95226H15.0641V9.10582ZM15.0641 6.64488H5.91538V5.49132H15.0641V6.64488Z" fill="#AAACB2"/>
<path d="M3.34302 19.5283V15.564L9.03958 15.5643L3.34302 19.5283Z" fill="#F37335"/>
<rect width="6.03958" height="0.436127" transform="matrix(1 0 0 -1 3 16)" fill="#2B2F3F"/>
</svg>
