<svg width="18" height="18" viewBox="0 0 18 18" fill="none" xmlns="http://www.w3.org/2000/svg">
<g opacity="0.6">
<path d="M6.06772 1.63636C6.06772 1.09978 6.48649 0.707616 7.02308 0.707616H10.9504C11.4868 0.707616 11.9056 1.09978 11.9056 1.63636V2.65356H12.6132V1.63636C12.6132 0.709689 11.8771 0 10.9504 0H7.02308C6.0964 0 5.36011 0.709689 5.36011 1.63636V2.65356H6.06772V1.63636Z" fill="white"/>
<path d="M4.80302 17.9999H13.1706C13.9773 17.9999 14.6034 17.2902 14.6034 16.4077V5.48389H3.37V16.4077C3.37 17.2902 3.99607 17.9999 4.80302 17.9999ZM11.2422 7.17329C11.2422 6.9779 11.4007 6.81948 11.596 6.81948C11.7914 6.81948 11.9498 6.9779 11.9498 7.17329V15.532C11.9498 15.7274 11.7914 15.8858 11.596 15.8858C11.4007 15.8858 11.2422 15.7274 11.2422 15.532V7.17329ZM8.63289 7.17329C8.63289 6.9779 8.79131 6.81948 8.9867 6.81948C9.18209 6.81948 9.34051 6.9779 9.34051 7.17329V15.532C9.34051 15.7274 9.18209 15.8858 8.9867 15.8858C8.79131 15.8858 8.63289 15.7274 8.63289 15.532V7.17329ZM6.02356 7.17329C6.02356 6.9779 6.18198 6.81948 6.37737 6.81948C6.57276 6.81948 6.73117 6.9779 6.73117 7.17329V15.532C6.73117 15.7274 6.57276 15.8858 6.37737 15.8858C6.18198 15.8858 6.02356 15.7274 6.02356 15.532V7.17329Z" fill="white"/>
<path d="M3.00732 4.77637H14.966C15.4545 4.77637 15.8505 4.3804 15.8505 3.89185C15.8505 3.40329 15.4545 3.00732 14.966 3.00732H3.00732C2.51876 3.00732 2.1228 3.40329 2.1228 3.89185C2.1228 4.3804 2.51876 4.77637 3.00732 4.77637Z" fill="white"/>
</g>
</svg>
