<svg width="19" height="19" viewBox="0 0 19 19" fill="none" xmlns="http://www.w3.org/2000/svg">
<path d="M6.40489 1.72727C6.40489 1.16088 6.84692 0.746928 7.41331 0.746928H11.5588C12.125 0.746928 12.5671 1.16088 12.5671 1.72727V2.80098H13.314V1.72727C13.314 0.749116 12.537 0 11.5588 0H7.41331C6.43516 0 5.65796 0.749116 5.65796 1.72727V2.80098H6.40489V1.72727Z" fill="#EF4037"/>
<path d="M5.06989 18.9999H13.9023C14.7539 18.9999 15.4147 18.2508 15.4147 17.3193V5.78857H3.55725V17.3193C3.55725 18.2508 4.21811 18.9999 5.06989 18.9999ZM11.8668 7.57183C11.8668 7.36559 12.0341 7.19837 12.2403 7.19837C12.4465 7.19837 12.6138 7.36559 12.6138 7.57183V16.3949C12.6138 16.6012 12.4465 16.7684 12.2403 16.7684C12.0341 16.7684 11.8668 16.6012 11.8668 16.3949V7.57183ZM9.11253 7.57183C9.11253 7.36559 9.27975 7.19837 9.486 7.19837C9.69224 7.19837 9.85946 7.36559 9.85946 7.57183V16.3949C9.85946 16.6012 9.69224 16.7684 9.486 16.7684C9.27975 16.7684 9.11253 16.6012 9.11253 16.3949V7.57183ZM6.35823 7.57183C6.35823 7.36559 6.52545 7.19837 6.7317 7.19837C6.93794 7.19837 7.10516 7.36559 7.10516 7.57183V16.3949C7.10516 16.6012 6.93794 16.7684 6.7317 16.7684C6.52545 16.7684 6.35823 16.6012 6.35823 16.3949V7.57183Z" fill="#EF4037"/>
<path d="M3.17438 5.04164H15.7974C16.3131 5.04164 16.7311 4.62368 16.7311 4.10798C16.7311 3.59228 16.3131 3.17432 15.7974 3.17432H3.17438C2.65868 3.17432 2.24072 3.59228 2.24072 4.10798C2.24072 4.62368 2.65868 5.04164 3.17438 5.04164Z" fill="#EF4037"/>
</svg>
