<svg width="19" height="19" viewBox="0 0 19 19" fill="none" xmlns="http://www.w3.org/2000/svg">
<g opacity="0.6">
<g clip-path="url(#clip0)">
<path d="M1.22886 8.46724C1.29059 8.61522 1.43464 8.71178 1.59449 8.71178L5.93057 8.71178L5.93057 18.6043C5.93057 18.8227 6.10785 19 6.32628 19L12.6575 19C12.8759 19 13.0532 18.8227 13.0532 18.6043L13.0532 8.71174L17.4059 8.71174C17.5658 8.71174 17.7098 8.61518 17.7716 8.46798C17.8325 8.32 17.7993 8.14984 17.6861 8.03665L9.79185 0.116298C9.71747 0.041919 9.61693 -3.69552e-05 9.51169 -3.69644e-05C9.40645 -3.69736e-05 9.30591 0.041919 9.23153 0.11552L1.31433 8.03587C1.20115 8.14909 1.16713 8.31922 1.22886 8.46724Z" fill="white"/>
</g>
</g>
<defs>
<clipPath id="clip0">
<rect x="19" y="19" width="19" height="19" transform="rotate(-180 19 19)" fill="white"/>
</clipPath>
</defs>
</svg>
