<svg width="19" height="19" viewBox="0 0 19 19" fill="none" xmlns="http://www.w3.org/2000/svg">
<g opacity="0.6" clip-path="url(#clip0)">
<path d="M15.7601 4.76971H15.3434V8.00939C15.3434 10.4096 13.3906 12.3624 10.9904 12.3624H4.76953V12.7793C4.76953 14.5656 6.22289 16.0188 8.00921 16.0188H14.6643L18.0869 18.871C18.1888 18.9559 18.3155 19 18.4433 19C18.7493 19 18.9998 18.7517 18.9998 18.4434V8.00939C18.9998 6.22031 17.5524 4.76971 15.7601 4.76971Z" fill="white"/>
<path d="M14.2303 8.00939V3.23968C14.2303 1.44741 12.7798 0 10.9906 0H3.23968C1.44741 0 0 1.45045 0 3.23968V13.6736C0 13.9818 0.250488 14.2303 0.556496 14.2303C0.684349 14.2303 0.811043 14.1862 0.912949 14.1011L4.33556 11.2491H10.9906C12.7769 11.2491 14.2303 9.79586 14.2303 8.00939ZM7.11514 8.86421C6.80783 8.86421 6.5585 8.61488 6.5585 8.30757C6.5585 8.00026 6.80783 7.75093 7.11514 7.75093C7.42231 7.75093 7.67178 8.00026 7.67178 8.30757C7.67178 8.61488 7.42231 8.86421 7.11514 8.86421ZM7.67178 6.40238V6.51893C7.67178 6.82624 7.42245 7.07557 7.11514 7.07557C6.80769 7.07557 6.5585 6.82624 6.5585 6.51893V5.92271C6.5585 5.61526 6.80769 5.36607 7.11514 5.36607C7.63004 5.36607 8.04897 4.947 8.04897 4.43211C8.04897 3.91707 7.63004 3.49814 7.11514 3.49814C6.86523 3.49814 6.63084 3.59526 6.45457 3.77153C6.2783 3.9478 6.18118 4.1822 6.18118 4.43138C6.18118 4.73884 5.93199 4.98846 5.62453 4.98846C5.31708 4.98846 5.06789 4.73942 5.06789 4.43211C5.06789 3.88561 5.28084 3.37086 5.6673 2.98441C6.0539 2.5978 6.56778 2.38486 7.11442 2.38486C8.24393 2.38486 9.16225 3.30331 9.16225 4.43211C9.16225 5.3681 8.53095 6.15943 7.67178 6.40238Z" fill="white"/>
</g>
<defs>
<clipPath id="clip0">
<rect width="19" height="19" fill="white"/>
</clipPath>
</defs>
</svg>
