<svg width="21" height="21" viewBox="0 0 21 21" fill="none" xmlns="http://www.w3.org/2000/svg">
<path opacity="0.6" d="M19.25 7H4.37504C3.56371 7 2.87112 7.54518 2.67802 8.33001C2.67716 8.33301 2.67588 8.33641 2.67502 8.33941L0.113678 16.9877C0.0859109 17.0821 0.0905867 17.1834 0.127337 17.2748C0.395661 17.9431 1.03226 18.375 1.75004 18.375H16.6251C17.4086 18.375 18.0901 17.8563 18.3041 17.1056C18.308 17.0963 18.3114 17.0869 18.3144 17.077L20.9138 9.29089C20.9223 9.26612 20.9279 9.24048 20.9317 9.21485C20.9774 9.05292 21 8.90038 21 8.74997C21 7.78483 20.2152 7 19.25 7Z" fill="white"/>
<path d="M0.374678 11.7057C0.396047 11.7091 0.416965 11.7104 0.437924 11.7104C0.628893 11.7104 0.801527 11.5852 0.857063 11.3973L1.83204 8.10489C1.83332 8.09976 1.83463 8.09505 1.8359 8.08992C2.13499 6.93295 3.17875 6.12503 4.37501 6.12503H17.8572C17.9995 6.12503 18.1328 6.05579 18.2148 5.9396C18.2964 5.82381 18.3169 5.67513 18.2695 5.54096C18.0217 4.8437 17.3607 4.37501 16.625 4.37501H8.49364L6.8718 2.75317C6.78977 2.67114 6.6787 2.625 6.56246 2.625H1.75001C0.784834 2.625 0 3.40983 0 4.37501V11.2729C0 11.4904 0.159797 11.6745 0.374678 11.7057Z" fill="#F37335"/>
</svg>
