<svg width="21" height="21" viewBox="0 0 21 21" fill="none" xmlns="http://www.w3.org/2000/svg">
<path d="M15.055 3.5242C15.5082 3.61178 15.9356 3.50272 16.2914 3.20907C16.6473 2.91538 16.8354 2.51631 16.8354 2.05488V2.02118C16.8354 1.30673 16.3472 0.704628 15.6482 0.556941C12.1343 -0.185592 8.86296 -0.185633 5.35288 0.556736C4.65405 0.704546 4.16602 1.30665 4.16602 2.02093V2.05488C4.16602 2.51627 4.35409 2.91538 4.70994 3.20907C4.986 3.43695 5.3052 3.5536 5.64604 3.5536C5.74448 3.5536 5.84485 3.54384 5.94637 3.52425C9.05362 2.92407 11.948 2.92403 15.055 3.5242Z" fill="white"/>
<path d="M11.2781 17.3098H9.67905C8.66168 17.3098 7.83398 18.1375 7.83398 19.1549C7.83398 20.1722 8.66168 20.9999 9.67905 20.9999H11.2781C12.2955 20.9999 13.1232 20.1722 13.1232 19.1549C13.1232 18.1375 12.2955 17.3098 11.2781 17.3098Z" fill="#F37335"/>
<path d="M2.75152 5.87047C2.75152 5.06324 3.04128 4.32259 3.52186 3.74644C3.2403 3.39445 3.05502 2.98316 2.97769 2.53699C2.08259 3.36862 1.52148 4.55515 1.52148 5.87047V6.60764C1.90608 6.42001 2.31884 6.28164 2.75152 6.20041V5.87047Z" fill="white"/>
<path d="M4.47301 6.95496C4.21224 6.95496 3.98993 7.11753 3.90046 7.3466H3.65302C1.64088 7.3466 0.00390625 8.98357 0.00390625 10.9957V12.3488C0.00390625 14.3609 1.64088 15.9979 3.65302 15.9979H3.90046C3.98993 16.2269 4.21224 16.3895 4.47301 16.3895C4.81266 16.3895 5.08803 16.1141 5.08803 15.7744V7.56997C5.08803 7.23028 4.8127 6.95496 4.47301 6.95496Z" fill="#F37335"/>
<path d="M18.2489 6.20045C18.6816 6.28167 19.0944 6.42005 19.479 6.60767V5.87047C19.479 4.55519 18.9179 3.36866 18.0228 2.53699C17.9454 2.98316 17.7601 3.3944 17.4785 3.7464C17.9591 4.32259 18.2489 5.06324 18.2489 5.87047V6.20045H18.2489Z" fill="white"/>
<path d="M17.3471 7.34648H17.0997C17.0102 7.1174 16.7879 6.95483 16.5271 6.95483C16.1875 6.95483 15.9121 7.2302 15.9121 7.56985V15.7743C15.9121 16.114 16.1875 16.3894 16.5271 16.3894C16.7879 16.3894 17.0102 16.2268 17.0997 15.9978H17.3471C19.3593 15.9978 20.9962 14.3608 20.9962 12.3486V10.9956C20.9962 8.98346 19.3593 7.34648 17.3471 7.34648Z" fill="#F37335"/>
<path d="M15.3389 18.5399H14.293C14.3335 18.7387 14.3548 18.9443 14.3548 19.1549C14.3548 19.3655 14.3335 19.5712 14.293 19.7699H15.3389C17.2094 19.7699 18.7939 18.5232 19.306 16.8173C18.8324 17.0256 18.3198 17.1607 17.7823 17.2083C17.2631 18.0088 16.3621 18.5399 15.3389 18.5399Z" fill="white"/>
</svg>
