<svg width="20" height="16" viewBox="0 0 20 16" fill="none" xmlns="http://www.w3.org/2000/svg">
<path d="M20 12.8473C19.9968 13.2574 19.8861 13.6596 19.6791 14.0137L13.3636 7.16275L19.6109 1.86184C19.8634 2.24448 19.9986 2.69251 20 3.15093V12.8473ZM10 8.40729L18.6918 1.03275C18.3257 0.834377 17.9164 0.729456 17.5 0.727295H2.5C2.0839 0.72923 1.67475 0.83417 1.30909 1.03275L10 8.40729ZM12.4227 7.96093L10.4109 9.66911C10.2958 9.7643 10.1512 9.81639 10.0018 9.81639C9.85247 9.81639 9.7078 9.7643 9.59273 9.66911L7.57636 7.96002L1.18182 14.8991C1.5785 15.1424 2.03466 15.2714 2.5 15.2718H17.5C17.9653 15.2714 18.4215 15.1424 18.8182 14.8991L12.4227 7.96093ZM0.389091 1.86184C0.136671 2.2445 0.00144298 2.69252 0 3.15093L0 12.8473C0.00284539 13.2575 0.113516 13.6597 0.320909 14.0137L6.63636 7.16093L0.389091 1.86184Z" fill="white"/>
</svg>
