<svg width="21" height="21" viewBox="0 0 21 21" fill="none" xmlns="http://www.w3.org/2000/svg">
<path opacity="0.6" d="M8.03906 21C9.85368 21 11.2586 20.8263 12.3856 20.4713C12.3617 20.3431 12.3457 20.2121 12.3457 20.0771C12.3457 19.4744 12.5963 18.9303 12.9968 18.5391C12.5963 18.1478 12.3457 17.6037 12.3457 17.001C12.3457 16.3982 12.5963 15.8541 12.9968 15.4629C12.5963 15.0716 12.3457 14.5275 12.3457 13.9248C12.3457 13.3221 12.5963 12.778 12.9968 12.3867C12.5963 11.9955 12.3457 11.4514 12.3457 10.8486C12.3457 10.1366 12.6972 9.50906 13.2315 9.11684C12.8656 8.78183 12.4747 8.48158 12.0645 8.21738C12.2311 8.0075 12.3457 7.75356 12.3457 7.46484C12.3457 6.7852 11.7949 6.23438 11.1152 6.23438H4.96289C4.28325 6.23438 3.73242 6.7852 3.73242 7.46484C3.73242 7.75291 3.84666 8.00606 4.01232 8.21562C1.6238 9.75435 0 12.5407 0 15.4629C0 20.4263 4.60545 21 8.03906 21ZM8.03249 15.0279C7.01463 15.0279 6.18679 14.2001 6.18679 13.1822C6.18679 12.3787 6.70589 11.7008 7.42383 11.4478V10.541C7.42383 10.201 7.69908 9.92578 8.03906 9.92578C8.37904 9.92578 8.6543 10.201 8.6543 10.541V11.452C9.3655 11.7085 9.8782 12.3837 9.8782 13.1822C9.8782 13.5223 9.60294 13.7974 9.26296 13.7974C8.92282 13.7974 8.64773 13.5223 8.64773 13.1822C8.64773 12.8427 8.37183 12.567 8.03249 12.567C7.69299 12.567 7.41726 12.8427 7.41726 13.1822C7.41726 13.5217 7.69299 13.7974 8.03249 13.7974C9.05019 13.7974 9.8782 14.6254 9.8782 15.6431C9.8782 16.4417 9.3655 17.1168 8.6543 17.3735V17.9238C8.6543 18.2638 8.37904 18.5391 8.03906 18.5391C7.69908 18.5391 7.42383 18.2638 7.42383 17.9238V17.3775C6.70589 17.1247 6.18679 16.4466 6.18679 15.6431C6.18679 15.3032 6.46188 15.0279 6.80202 15.0279C7.14201 15.0279 7.41726 15.3032 7.41726 15.6431C7.41726 15.9826 7.69299 16.2584 8.03249 16.2584C8.37183 16.2584 8.64773 15.9826 8.64773 15.6431C8.64773 15.3036 8.37183 15.0279 8.03249 15.0279Z" fill="white"/>
<path d="M20.0771 19.1543H14.499C13.9894 19.1543 13.5762 19.5675 13.5762 20.0771C13.5762 20.5868 13.9894 21 14.499 21H20.0771C20.5868 21 21 20.5868 21 20.0771C21 19.5675 20.5868 19.1543 20.0771 19.1543Z" fill="#F37335"/>
<path d="M20.0771 16.0781H14.499C13.9894 16.0781 13.5762 16.4913 13.5762 17.001C13.5762 17.5106 13.9894 17.9238 14.499 17.9238H20.0771C20.5868 17.9238 21 17.5106 21 17.001C21 16.4913 20.5868 16.0781 20.0771 16.0781Z" fill="#F37335"/>
<path d="M20.0771 13.002H14.499C13.9894 13.002 13.5762 13.4152 13.5762 13.9248C13.5762 14.4345 13.9894 14.8477 14.499 14.8477H20.0771C20.5868 14.8477 21 14.4345 21 13.9248C21 13.4152 20.5868 13.002 20.0771 13.002Z" fill="#F37335"/>
<path d="M20.0771 9.92578H14.499C13.9894 9.92578 13.5762 10.339 13.5762 10.8486C13.5762 11.3583 13.9894 11.7715 14.499 11.7715H20.0771C20.5868 11.7715 21 11.3583 21 10.8486C21 10.339 20.5868 9.92578 20.0771 9.92578Z" fill="#F37335"/>
<path opacity="0.6" d="M9.7715 1.23047C9.5166 0.5159 8.84016 0 8.03907 0C7.23702 0 6.55274 0.514297 6.29847 1.23047H4.34767C4.14996 1.23047 3.96427 1.32532 3.84843 1.48586C3.73307 1.64623 3.70119 1.85291 3.76431 2.04037L4.72482 5.00391H11.3535L12.3138 2.04037C12.377 1.85291 12.3451 1.64623 12.2297 1.48586C12.1139 1.32532 11.9282 1.23047 11.7305 1.23047H9.7715Z" fill="white"/>
</svg>
