<svg width="21" height="21" viewBox="0 0 21 21" fill="none" xmlns="http://www.w3.org/2000/svg">
<g clip-path="url(#clip0)">
<path opacity="0.6" d="M20.5895 5.26437L10.7047 1.77677C10.5723 1.73001 10.4278 1.73001 10.2953 1.77677L0.410567 5.26437C0.164801 5.35107 0.000328617 5.58322 4.91655e-07 5.84384C-0.000327633 6.10445 0.163612 6.33697 0.409172 6.42425L10.2939 9.93834C10.3606 9.96205 10.4303 9.9739 10.5 9.9739C10.5697 9.9739 10.6394 9.96205 10.7061 9.93834L20.5908 6.42425C20.8364 6.33697 21.0003 6.10445 21 5.84384C20.9997 5.58322 20.8352 5.35107 20.5895 5.26437Z" fill="white"/>
<path opacity="0.6" d="M19.5223 13.4768V8.11035L18.2919 8.54778V13.4768C17.9213 13.6902 17.6715 14.0898 17.6715 14.5482C17.6715 15.0065 17.9213 15.4062 18.2919 15.6196V18.6431C18.2919 18.9828 18.5673 19.2583 18.9071 19.2583C19.2469 19.2583 19.5223 18.9828 19.5223 18.6431V15.6196C19.893 15.4063 20.1427 15.0065 20.1427 14.5482C20.1427 14.0899 19.893 13.6902 19.5223 13.4768Z" fill="white"/>
<path d="M10.5 11.2047C10.2888 11.2047 10.0808 11.1688 9.88175 11.0981L4.32483 9.12256V11.8299C4.32483 12.4923 5.01582 13.0524 6.3786 13.4947C7.56646 13.8803 9.03014 14.0926 10.5 14.0926C11.9698 14.0926 13.4335 13.8803 14.6214 13.4947C15.9841 13.0524 16.6751 12.4923 16.6751 11.8299V9.12256L11.1182 11.0981C10.9192 11.1688 10.7112 11.2047 10.5 11.2047Z" fill="#F37335"/>
</g>
<defs>
<clipPath id="clip0">
<rect width="21" height="21" fill="white"/>
</clipPath>
</defs>
</svg>
