<svg width="19" height="19" viewBox="0 0 19 19" fill="none" xmlns="http://www.w3.org/2000/svg">
<g opacity="0.6">
<g clip-path="url(#clip0)">
<path d="M18.6286 4.7631L9.68521 1.60766C9.56539 1.56535 9.43465 1.56535 9.31483 1.60766L0.371465 4.7631C0.149106 4.84155 0.00029732 5.05159 4.44831e-07 5.28738C-0.00029643 5.52318 0.14803 5.73355 0.370204 5.81252L9.31356 8.99194C9.37387 9.01339 9.43695 9.02411 9.5 9.02411C9.56309 9.02411 9.62613 9.01339 9.68644 8.99194L18.6298 5.81252C18.852 5.73355 19.0003 5.52318 19 5.28738C18.9997 5.05159 18.8509 4.84155 18.6286 4.7631Z" fill="white"/>
<path d="M17.6628 12.1933V7.33789L16.5496 7.73366V12.1933C16.2142 12.3863 15.9883 12.7479 15.9883 13.1626C15.9883 13.5773 16.2142 13.9389 16.5496 14.1319V16.8675C16.5496 17.1749 16.7988 17.4241 17.1062 17.4241C17.4136 17.4241 17.6628 17.1749 17.6628 16.8675V14.132C17.9982 13.939 18.2241 13.5773 18.2241 13.1626C18.2241 12.7479 17.9982 12.3863 17.6628 12.1933Z" fill="white"/>
<path d="M9.50012 10.1375C9.30905 10.1375 9.12087 10.105 8.94078 10.041L3.91309 8.25366V10.7032C3.91309 11.3025 4.53827 11.8093 5.77126 12.2094C6.84599 12.5583 8.17027 12.7504 9.50012 12.7504C10.83 12.7504 12.1542 12.5583 13.229 12.2094C14.462 11.8093 15.0872 11.3025 15.0872 10.7032V8.25366L10.0595 10.041C9.87938 10.105 9.6912 10.1375 9.50012 10.1375Z" fill="white"/>
</g>
</g>
<defs>
<clipPath id="clip0">
<rect width="19" height="19" fill="white"/>
</clipPath>
</defs>
</svg>
