<svg width="19" height="19" viewBox="0 0 19 19" fill="none" xmlns="http://www.w3.org/2000/svg">
<g opacity="0.6">
<path d="M9.49981 0C4.2532 0 0 4.25329 0 9.5C0 14.7468 4.2532 19 9.49981 19C14.7466 19 19 14.7467 19 9.5C19 4.25329 14.7467 0 9.49981 0ZM11.407 14.6438C11.407 15.0324 11.092 15.3474 10.7035 15.3474H9.4075C9.01894 15.3474 8.70392 15.0324 8.70392 14.6438V6.74726L7.90184 7.18024C7.71098 7.28329 7.48325 7.29249 7.2848 7.20538C7.08624 7.11823 6.93896 6.94436 6.88563 6.73417L6.62957 5.72486C6.55007 5.41139 6.69444 5.08413 6.97953 4.93155L9.21345 3.73588C9.31557 3.68119 9.42959 3.65262 9.54545 3.65262H10.7035C11.092 3.65262 11.407 3.96764 11.407 4.3562V14.6438Z" fill="white"/>
</g>
</svg>
