<svg width="26" height="26" viewBox="0 0 26 26" fill="none" xmlns="http://www.w3.org/2000/svg">
<path d="M6.5 0C5.60625 0 4.875 0.73125 4.875 1.625V24.375C4.875 25.2687 5.60625 26 6.5 26H22.75C23.6437 26 24.375 25.2687 24.375 24.375V6.5L17.875 0H6.5Z" fill="#E2E5E7"/>
<path d="M19.5 6.5H24.375L17.875 0V4.875C17.875 5.76875 18.6062 6.5 19.5 6.5Z" fill="#B0B7BD"/>
<path d="M24.375 11.375L19.5 6.5H24.375V11.375Z" fill="#CAD1D8"/>
<path d="M21.125 21.125C21.125 21.5719 20.7594 21.9375 20.3125 21.9375H2.4375C1.99062 21.9375 1.625 21.5719 1.625 21.125V13C1.625 12.5531 1.99062 12.1875 2.4375 12.1875H20.3125C20.7594 12.1875 21.125 12.5531 21.125 13V21.125Z" fill="#F15642"/>
<path d="M5.16699 15.3948C5.16699 15.1803 5.33599 14.9463 5.60818 14.9463H7.10887C7.95387 14.9463 8.71437 15.5118 8.71437 16.5957C8.71437 17.6227 7.95387 18.1947 7.10887 18.1947H6.02418V19.0527C6.02418 19.3387 5.84218 19.5003 5.60818 19.5003C5.39368 19.5003 5.16699 19.3387 5.16699 19.0527V15.3948ZM6.02418 15.7645V17.383H7.10887C7.54437 17.383 7.88887 16.9987 7.88887 16.5957C7.88887 16.1415 7.54437 15.7645 7.10887 15.7645H6.02418Z" fill="white"/>
<path d="M9.98659 19.5004C9.77209 19.5004 9.53809 19.3834 9.53809 19.0983V15.4079C9.53809 15.1747 9.77209 15.0049 9.98659 15.0049H11.4743C14.4431 15.0049 14.3781 19.5004 11.5328 19.5004H9.98659ZM10.3961 15.7979V18.7083H11.4743C13.2285 18.7083 13.3065 15.7979 11.4743 15.7979H10.3961Z" fill="white"/>
<path d="M15.4319 15.8497V16.8824H17.0886C17.3226 16.8824 17.5566 17.1164 17.5566 17.3431C17.5566 17.5576 17.3226 17.7331 17.0886 17.7331H15.4319V19.0973C15.4319 19.3248 15.2702 19.4995 15.0427 19.4995C14.7567 19.4995 14.582 19.3248 14.582 19.0973V15.4069C14.582 15.1737 14.7575 15.0039 15.0427 15.0039H17.3234C17.6094 15.0039 17.7784 15.1737 17.7784 15.4069C17.7784 15.6149 17.6094 15.8489 17.3234 15.8489H15.4319V15.8497Z" fill="white"/>
<path d="M20.3125 21.9375H4.875V22.75H20.3125C20.7594 22.75 21.125 22.3844 21.125 21.9375V21.125C21.125 21.5719 20.7594 21.9375 20.3125 21.9375Z" fill="#CAD1D8"/>
</svg>
