<svg width="19" height="19" viewBox="0 0 19 19" fill="none" xmlns="http://www.w3.org/2000/svg">
<g opacity="0.6">
<g clip-path="url(#clip0)">
<path d="M14.0831 6.12736C13.9211 5.96531 13.6344 5.96531 13.4725 6.12736L5.25909 14.3477C5.16083 14.446 5.11614 14.5853 5.13804 14.7225C5.16039 14.8596 5.24727 14.9778 5.37122 15.0398L6.0455 15.3775V16.513L3.97963 17.1041L1.89436 15.017L2.48501 12.9494H3.61954L3.95688 13.6242C4.01886 13.7483 4.13695 13.8353 4.27398 13.8576C4.29718 13.8614 4.32037 13.8631 4.34312 13.8631C4.45656 13.8631 4.56703 13.8184 4.64844 13.7365L12.8618 5.51619C12.9428 5.43515 12.9883 5.32544 12.9883 5.21063C12.9883 5.09582 12.9428 4.98611 12.8618 4.90507L11.2737 3.31559C11.1928 3.23455 11.0831 3.18896 10.9684 3.18896H10.9676C10.8524 3.18937 10.7423 3.2354 10.6618 3.31685L1.85263 12.2129C1.84838 12.2173 1.84858 12.2239 1.84449 12.2283C1.80016 12.2762 1.76316 12.3315 1.74381 12.3986L0.994029 15.0242L0.0165739 18.4492C-0.0264593 18.5999 0.0157237 18.7624 0.126646 18.8734C0.208867 18.9557 0.318939 19 0.431967 19C0.4716 19 0.511232 18.9945 0.55046 18.9835L3.9725 18.0052L6.59587 17.2548C6.60376 17.2525 6.60919 17.2466 6.61692 17.2439C6.64416 17.2345 6.66801 17.2192 6.69307 17.2044C6.71768 17.1898 6.74229 17.1768 6.7631 17.158C6.76869 17.153 6.77601 17.1512 6.7814 17.1459L15.6699 8.32922C15.7513 8.24862 15.7973 8.13846 15.7977 8.02325C15.7981 7.90844 15.7525 7.79829 15.6712 7.71684L14.0831 6.12736Z" fill="white"/>
<path d="M18.494 3.08341L15.9031 0.490327C15.2503 -0.163024 14.1147 -0.164279 13.4593 0.491582L11.8776 2.08907C11.7102 2.25833 11.7106 2.53053 11.8788 2.69894L16.2872 7.11107C16.3715 7.19548 16.4821 7.2377 16.5925 7.2377C16.7026 7.2377 16.8122 7.19593 16.8966 7.11237L18.4939 5.528C18.8203 5.20134 19 4.76745 19 4.30574C19 3.84404 18.8204 3.41006 18.494 3.08341Z" fill="white"/>
</g>
</g>
<defs>
<clipPath id="clip0">
<rect width="19" height="19" fill="white"/>
</clipPath>
</defs>
</svg>
