<svg width="19" height="19" viewBox="0 0 19 19" fill="none" xmlns="http://www.w3.org/2000/svg">
<g opacity="0.6" clip-path="url(#clip0)">
<path d="M9.50008 6.90918C8.07075 6.90918 6.90918 8.07075 6.90918 9.50008C6.90918 10.9294 8.07075 12.091 9.50008 12.091C10.9294 12.091 12.091 10.9294 12.091 9.50008C12.091 8.07075 10.9294 6.90918 9.50008 6.90918Z" fill="white"/>
<path d="M9.50002 3.02283C5.18182 3.02283 1.49411 5.70871 0 9.5001C1.49411 13.2915 5.18182 15.9774 9.50002 15.9774C13.8225 15.9774 17.5059 13.2915 19 9.5001C17.5059 5.70871 13.8225 3.02283 9.50002 3.02283ZM9.50002 13.8183C7.11638 13.8183 5.18182 11.8837 5.18182 9.50006C5.18182 7.11643 7.11638 5.18191 9.50002 5.18191C11.8837 5.18191 13.8182 7.11647 13.8182 9.5001C13.8182 11.8837 11.8837 13.8183 9.50002 13.8183Z" fill="white"/>
</g>
<defs>
<clipPath id="clip0">
<rect width="19" height="19" fill="white"/>
</clipPath>
</defs>
</svg>
