<svg width="19" height="19" viewBox="0 0 19 19" fill="none" xmlns="http://www.w3.org/2000/svg">
<g opacity="0.6">
<path d="M9.5 19C10.7297 19 11.7266 18.0031 11.7266 16.7734C11.7266 15.5437 10.7297 14.5469 9.5 14.5469C8.2703 14.5469 7.27344 15.5437 7.27344 16.7734C7.27344 18.0031 8.2703 19 9.5 19Z" fill="white"/>
<path d="M9.5 0C6.30789 0 3.71094 2.59695 3.71094 5.78906V6.3457H8.16406V5.78906C8.16406 5.0524 8.76334 4.45312 9.5 4.45312C10.2367 4.45312 10.8359 5.0524 10.8359 5.78906C10.8359 6.18161 10.6636 6.55314 10.3632 6.80849L7.27344 9.43536V13.4336H11.7266V11.4943L13.2472 10.2016C14.5448 9.09888 15.2891 7.49064 15.2891 5.78906C15.2891 2.59695 12.6921 0 9.5 0V0Z" fill="white"/>
</g>
</svg>
