<svg width="21" height="21" viewBox="0 0 21 21" fill="none" xmlns="http://www.w3.org/2000/svg">
<g opacity="0.6">
<path d="M11.3749 15.7499C11.3749 16.2332 10.9832 16.6249 10.4999 16.6249C10.0167 16.6249 9.625 16.2332 9.625 15.7499C9.625 15.2667 10.0167 14.875 10.4999 14.875C10.9832 14.875 11.3749 15.2667 11.3749 15.7499Z" fill="white"/>
<path d="M10.5 21C4.71007 21 0 16.2899 0 10.5C0 4.71007 4.71007 0 10.5 0C16.2899 0 21 4.71007 21 10.5C21 16.2899 16.2899 21 10.5 21ZM10.5 1.3125C5.43377 1.3125 1.3125 5.43377 1.3125 10.5C1.3125 15.5662 5.43377 19.6875 10.5 19.6875C15.5662 19.6875 19.6875 15.5662 19.6875 10.5C19.6875 5.43377 15.5662 1.3125 10.5 1.3125Z" fill="white"/>
<path d="M10.5001 12.9064C10.1378 12.9064 9.8438 12.6124 9.8438 12.2501V11.3663C9.8438 10.5334 10.3724 9.78693 11.1581 9.50959C12.2036 9.14125 12.9064 8.02726 12.9064 7.2188C12.9064 5.8914 11.8275 4.8125 10.5001 4.8125C9.17265 4.8125 8.09375 5.8914 8.09375 7.2188C8.09375 7.58105 7.79975 7.87505 7.4375 7.87505C7.07525 7.87505 6.78125 7.58105 6.78125 7.2188C6.78125 5.16866 8.44911 3.5 10.5001 3.5C12.551 3.5 14.2189 5.16866 14.2189 7.2188C14.2189 8.67838 13.0664 10.228 11.5947 10.7477C11.3322 10.8396 11.1563 11.0889 11.1563 11.3671V12.2501C11.1563 12.6124 10.8623 12.9064 10.5001 12.9064Z" fill="white"/>
</g>
</svg>
