<svg width="19" height="19" viewBox="0 0 19 19" fill="none" xmlns="http://www.w3.org/2000/svg">
<path d="M9.5 0C4.26179 0 0 4.26179 0 9.5C0 14.7382 4.26179 19 9.5 19C14.7382 19 19 14.7382 19 9.5C19 4.26179 14.7382 0 9.5 0ZM13.3423 12.2229C13.4969 12.3774 13.4969 12.6281 13.3423 12.7827L12.7827 13.3423C12.6281 13.4969 12.3775 13.4969 12.2229 13.3423L9.5 10.6195L6.77714 13.3423C6.6225 13.4969 6.37194 13.4969 6.2173 13.3423L5.65766 12.7827C5.50302 12.6281 5.50302 12.3775 5.65766 12.2229L8.38052 9.49996L5.65766 6.7771C5.50302 6.62254 5.50302 6.3719 5.65766 6.2173L6.2173 5.65762C6.37194 5.50306 6.6225 5.50306 6.77714 5.65762L9.5 8.38048L12.2229 5.65762C12.3775 5.50306 12.6281 5.50306 12.7827 5.65762L13.3423 6.2173C13.497 6.37186 13.497 6.6225 13.3423 6.7771L10.6195 9.49996L13.3423 12.2229Z" fill="white"/>
</svg>
