<svg width="28" height="28" viewBox="0 0 28 28" fill="none" xmlns="http://www.w3.org/2000/svg">
<path d="M7 0C6.0375 0 5.25 0.7875 5.25 1.75V26.25C5.25 27.2125 6.0375 28 7 28H24.5C25.4625 28 26.25 27.2125 26.25 26.25V7L19.25 0H7Z" fill="#E2E5E7"/>
<path d="M21 7H26.25L19.25 0V5.25C19.25 6.2125 20.0375 7 21 7Z" fill="#B0B7BD"/>
<path d="M26.25 12.25L21 7H26.25V12.25Z" fill="#CAD1D8"/>
<path d="M22.75 22.75C22.75 23.2312 22.3563 23.625 21.875 23.625H2.625C2.14375 23.625 1.75 23.2312 1.75 22.75V14C1.75 13.5187 2.14375 13.125 2.625 13.125H21.875C22.3563 13.125 22.75 13.5187 22.75 14V22.75Z" fill="#50BEE8"/>
<path d="M7.76384 16.5787C7.76384 15.9907 8.68784 15.9907 8.68784 16.5787V19.3419C8.68784 20.4409 8.16284 21.106 6.95271 21.106C6.35771 21.106 5.86159 20.9441 5.42759 20.385C5.07059 19.958 5.74259 19.3428 6.10659 19.79C6.40059 20.154 6.71559 20.238 7.02271 20.224C7.41384 20.21 7.75771 20.0341 7.76471 19.3419V16.5787H7.76384Z" fill="white"/>
<path d="M9.91699 16.5787C9.91699 16.3477 10.099 16.0957 10.393 16.0957H12.0091C12.9191 16.0957 13.7381 16.7047 13.7381 17.872C13.7381 18.978 12.9191 19.594 12.0091 19.594H10.841V20.518C10.841 20.826 10.645 21.0001 10.393 21.0001C10.162 21.0001 9.91699 20.826 9.91699 20.518V16.5787ZM10.841 16.9768V18.7198H12.0091C12.4781 18.7198 12.8491 18.306 12.8491 17.872C12.8491 17.3828 12.4781 16.9768 12.0091 16.9768H10.841Z" fill="white"/>
<path d="M18.7347 20.4619C18.2377 20.8749 17.6287 21.0499 17.0136 21.0499C15.5436 21.0499 14.5015 20.2108 14.5015 18.5448C14.5015 17.1325 15.6005 16.0344 17.0757 16.0344C17.6287 16.0344 18.2368 16.2225 18.6708 16.6495C19.097 17.0687 18.4818 17.6917 18.0627 17.3215C17.8037 17.0695 17.4397 16.8805 17.0757 16.8805C16.2296 16.8805 15.4115 17.5587 15.4115 18.5448C15.4115 19.5808 16.0966 20.2108 17.0136 20.2108C17.4397 20.2108 17.8037 20.0839 18.0627 19.8958V19.0357H17.0136C16.3906 19.0357 16.4536 18.1817 17.0136 18.1817H18.4127C18.6717 18.1817 18.9088 18.3777 18.9088 18.5947V20.0848C18.9088 20.2108 18.8537 20.328 18.7347 20.4619Z" fill="white"/>
<path d="M21.875 23.625H5.25V24.5H21.875C22.3563 24.5 22.75 24.1063 22.75 23.625V22.75C22.75 23.2313 22.3563 23.625 21.875 23.625Z" fill="#CAD1D8"/>
</svg>
