<svg width="20" height="20" viewBox="0 0 20 20" fill="none" xmlns="http://www.w3.org/2000/svg">
<path d="M19.8265 18.98L14.9662 14.1197C16.27 12.6208 17.0593 10.6652 17.0593 8.52772C17.0593 3.82262 13.2323 0 8.53162 0C3.82652 0 0.00390625 3.82705 0.00390625 8.52772C0.00390625 13.2284 3.83096 17.0554 8.53162 17.0554C10.6691 17.0554 12.6247 16.2661 14.1236 14.9623L18.9839 19.8226C19.0992 19.9379 19.2545 20 19.4052 20C19.556 20 19.7112 19.9424 19.8265 19.8226C20.0571 19.592 20.0571 19.2106 19.8265 18.98ZM1.19681 8.52772C1.19681 4.48337 4.48728 1.19734 8.52719 1.19734C12.5715 1.19734 15.8576 4.4878 15.8576 8.52772C15.8576 12.5676 12.5715 15.8625 8.52719 15.8625C4.48728 15.8625 1.19681 12.5721 1.19681 8.52772Z" fill="white"/>
</svg>
