<svg width="21" height="13" viewBox="0 0 21 13" fill="none" xmlns="http://www.w3.org/2000/svg">
<path d="M3.36736 5.92919L3.0303 5.62158L2.69325 5.92919L1.66295 6.86949L1.25828 7.23881L1.66295 7.60812L5.78416 11.3693L6.12121 11.6769L6.45827 11.3693L15.2894 3.30961L15.6941 2.9403L15.2894 2.57098L14.2591 1.63068L13.9221 1.32307L13.585 1.63068L6.12121 8.44248L3.36736 5.92919Z" fill="#2B2F3F" stroke="#2B2F3F"/>
<path d="M7.41521 5.92919L7.07815 5.62158L6.7411 5.92919L5.7108 6.86949L5.30613 7.23881L5.7108 7.60812L9.83201 11.3693L10.1691 11.6769L10.5061 11.3693L19.3373 3.30961L19.742 2.9403L19.3373 2.57098L18.307 1.63068L17.9699 1.32307L17.6329 1.63068L10.1691 8.44248L7.41521 5.92919Z" fill="#9A9EA4" stroke="#2B2F3F"/>
</svg>
