<svg width="21" height="21" viewBox="0 0 21 21" fill="none" xmlns="http://www.w3.org/2000/svg">
<path d="M13.8089 14.058C13.8576 13.5461 13.8428 13.0362 13.7689 12.5383L14.9198 12.0253C14.8111 11.4678 14.6401 10.9178 14.403 10.3856C14.166 9.85373 13.8715 9.35887 13.5303 8.90478L12.3787 9.41738C12.0582 9.02972 11.689 8.67792 11.2761 8.37142L11.7275 7.19523C11.2561 6.87816 10.7465 6.61015 10.2026 6.40142C9.66089 6.19343 9.1045 6.04962 8.53868 5.96997L8.08685 7.14729C7.57501 7.0986 7.06505 7.11332 6.56717 7.1873L6.05721 6.04207C4.91802 6.2659 3.85356 6.74906 2.93971 7.43945L3.44627 8.57713C3.05786 8.8976 2.70606 9.26714 2.39956 9.67972L1.22639 9.22978C0.906298 9.7001 0.637919 10.2101 0.428803 10.7536C0.221573 11.2972 0.0796455 11.8551 0 12.4171L1.17619 12.8686C1.12749 13.3804 1.14222 13.8904 1.2162 14.3882L0.0653018 14.9008C0.174012 15.4587 0.345005 16.0083 0.582054 16.5406C0.819481 17.0728 1.11353 17.5673 1.45514 18.0214L2.60603 17.5088C2.9265 17.8968 3.29566 18.2486 3.70899 18.5551L3.25754 19.732C3.729 20.0495 4.23858 20.3171 4.78251 20.5259C5.32417 20.7338 5.88056 20.8777 6.44638 20.9573L6.89821 19.78C7.41005 19.8283 7.92001 19.8136 8.41789 19.7396L8.92785 20.8844C10.067 20.6606 11.1323 20.1774 12.0457 19.4871L11.5388 18.3494C11.9268 18.0289 12.279 17.6597 12.5855 17.2468L13.7579 17.6967C14.078 17.2264 14.3464 16.7165 14.5555 16.1733C14.7642 15.6297 14.9058 15.0715 14.9854 14.509L13.8089 14.058ZM10.6823 14.6872C10.0063 16.4492 8.03023 17.3287 6.26784 16.6527C4.50771 15.977 3.62708 14.0013 4.30275 12.2397C4.97879 10.4781 6.95483 9.59856 8.71609 10.2738C10.4777 10.9495 11.358 12.9259 10.6823 14.6872Z" fill="white"/>
<path d="M20.1812 4.67864C20.1812 4.45065 20.1578 4.22757 20.1178 4.0109L20.9999 3.50132C20.7863 2.68901 20.362 1.96163 19.7818 1.38713L18.8974 1.89784C18.56 1.6087 18.1689 1.38222 17.7412 1.23124V0.210942C17.3517 0.104118 16.9436 0.0429688 16.5213 0.0429688C16.0989 0.0429688 15.6912 0.104873 15.3013 0.210942V1.23161C14.8736 1.3826 14.4829 1.60946 14.1451 1.89822L13.2603 1.38751C12.6809 1.96201 12.2563 2.68939 12.0422 3.5017L12.9248 4.01128C12.8847 4.22832 12.861 4.45065 12.861 4.67902C12.861 4.90739 12.8847 5.13009 12.9248 5.34676L12.0422 5.85634C12.2563 6.66865 12.6809 7.3964 13.2603 7.97053L14.1447 7.45982C14.4826 7.74896 14.8732 7.97544 15.3009 8.12643V9.1471C15.6908 9.25354 16.0985 9.31507 16.5209 9.31507C16.9433 9.31507 17.3517 9.25317 17.7409 9.1471V8.12643C18.1685 7.97544 18.5596 7.74858 18.897 7.45982L19.7814 7.97053C20.3616 7.39603 20.7859 6.66865 20.9995 5.85634L20.1174 5.34676C20.1578 5.12934 20.1812 4.90701 20.1812 4.67864ZM16.5216 6.38706C15.578 6.38706 14.8128 5.62231 14.8128 4.67902C14.8128 3.73573 15.578 2.9706 16.5216 2.9706C17.4642 2.9706 18.2293 3.73535 18.2293 4.67864C18.2293 5.62193 17.4642 6.38706 16.5216 6.38706Z" fill="#F37335"/>
</svg>
