<svg width="18" height="18" viewBox="0 0 18 18" fill="none" xmlns="http://www.w3.org/2000/svg">
<path d="M17.4607 10.9725L15.8062 9.67876C15.8272 9.47925 15.8452 9.24602 15.8452 8.99926C15.8452 8.7525 15.828 8.51927 15.8062 8.31976L17.4622 7.02527C17.7697 6.78227 17.8537 6.35101 17.658 5.99179L15.9375 3.015C15.7537 2.67901 15.351 2.5065 14.9422 2.65725L12.99 3.44099C12.6157 3.17099 12.2235 2.943 11.8177 2.76075L11.5207 0.690012C11.472 0.297 11.13 0 10.7257 0H7.27575C6.87148 0 6.53026 0.297 6.48223 0.684L6.1845 2.76226C5.79148 2.93927 5.40526 3.16427 5.0145 3.4425L3.057 2.65651C2.69021 2.51476 2.25146 2.67374 2.06921 3.00825L0.346484 5.98876C0.143245 6.33227 0.227234 6.77851 0.541495 7.02752L2.19598 8.32127C2.16972 8.57401 2.157 8.79377 2.157 9.00004C2.157 9.2063 2.16976 9.42602 2.19598 9.67954L0.539984 10.974C0.232472 11.2178 0.149222 11.649 0.344972 12.0075L2.06548 14.9843C2.24925 15.3195 2.64823 15.4935 3.06072 15.342L5.01298 14.5583C5.38648 14.8275 5.77872 15.0555 6.1845 15.2385L6.4815 17.3085C6.53022 17.703 6.87148 18 7.27648 18H10.7265C11.1307 18 11.4727 17.703 11.5207 17.316L11.8185 15.2385C12.2115 15.0608 12.597 14.8365 12.9885 14.5575L14.946 15.3435C15.0405 15.3802 15.1387 15.399 15.24 15.399C15.531 15.399 15.7987 15.24 15.9337 14.9925L17.6617 12C17.8537 11.649 17.7697 11.2178 17.4607 10.9725ZM9.00072 12C7.34623 12 6.00073 10.6545 6.00073 9C6.00073 7.34551 7.34623 6.00001 9.00072 6.00001C10.6552 6.00001 12.0007 7.34551 12.0007 9C12.0007 10.6545 10.6552 12 9.00072 12Z" fill="white"/>
</svg>
