<svg width="19" height="19" viewBox="0 0 19 19" fill="none" xmlns="http://www.w3.org/2000/svg">
<g opacity="0.6">
<g clip-path="url(#clip0)">
<path d="M11.2812 0H2.17708C0.97375 0 0 0.97375 0 2.17708V14.4479C0 15.6513 0.97375 16.625 2.17708 16.625H8.62125C7.92458 15.675 7.52083 14.5192 7.52083 13.2604C7.52083 10.0938 10.0938 7.52083 13.2604 7.52083C13.3238 7.52083 13.395 7.52083 13.4583 7.52875V2.17708C13.4583 0.97375 12.4846 0 11.2812 0ZM3.16667 3.16667H6.33333C6.76875 3.16667 7.125 3.52292 7.125 3.95833C7.125 4.39375 6.76875 4.75 6.33333 4.75H3.16667C2.73125 4.75 2.375 4.39375 2.375 3.95833C2.375 3.52292 2.73125 3.16667 3.16667 3.16667ZM7.125 11.0833H3.16667C2.73125 11.0833 2.375 10.7271 2.375 10.2917C2.375 9.85625 2.73125 9.5 3.16667 9.5H7.125C7.56042 9.5 7.91667 9.85625 7.91667 10.2917C7.91667 10.7271 7.56042 11.0833 7.125 11.0833ZM10.2917 7.91667H3.16667C2.73125 7.91667 2.375 7.56042 2.375 7.125C2.375 6.68958 2.73125 6.33333 3.16667 6.33333H10.2917C10.7271 6.33333 11.0833 6.68958 11.0833 7.125C11.0833 7.56042 10.7271 7.91667 10.2917 7.91667Z" fill="white"/>
<path d="M13.2604 17.4165C10.9685 17.4165 9.10413 15.5521 9.10413 13.2603C9.10413 10.9684 10.9685 9.104 13.2604 9.104C15.5523 9.104 17.4166 10.9684 17.4166 13.2603C17.4166 15.5521 15.5523 17.4165 13.2604 17.4165ZM13.2604 10.6873C11.8417 10.6873 10.6875 11.8416 10.6875 13.2603C10.6875 14.6789 11.8417 15.8332 13.2604 15.8332C14.679 15.8332 15.8333 14.6789 15.8333 13.2603C15.8333 11.8416 14.679 10.6873 13.2604 10.6873Z" fill="white"/>
<path d="M18.2084 19.0002C18.0058 19.0002 17.8031 18.9226 17.6487 18.7682L15.0758 16.1953C14.7662 15.8858 14.7662 15.3854 15.0758 15.0759C15.3853 14.7664 15.8857 14.7664 16.1952 15.0759L18.7681 17.6488C19.0777 17.9584 19.0777 18.4587 18.7681 18.7682C18.6138 18.9226 18.4111 19.0002 18.2084 19.0002Z" fill="white"/>
</g>
</g>
<defs>
<clipPath id="clip0">
<rect width="19" height="19" fill="white"/>
</clipPath>
</defs>
</svg>
