<svg width="21" height="21" viewBox="0 0 21 21" fill="none" xmlns="http://www.w3.org/2000/svg">
<g opacity="0.6">
<path d="M7.18568 10.2653C7.18568 8.64309 7.94725 7.1989 9.13003 6.26914L7.3197 3.37158C5.80253 4.46124 4.66091 6.03838 4.12231 7.87424C4.96547 8.41692 5.52462 9.36516 5.52462 10.4429C5.52462 11.4823 5.00781 12.3988 4.2145 12.9504C4.79357 14.6894 5.922 16.178 7.39397 17.2112L9.07759 14.2168C7.92401 13.2873 7.18568 11.8624 7.18568 10.2653Z" fill="white"/>
</g>
<g opacity="0.6">
<path d="M4.66894 10.4427C4.66894 11.6549 3.68444 12.6384 2.47247 12.6384C1.25989 12.6384 0.276123 11.655 0.276123 10.4427C0.276123 9.23099 1.25989 8.24756 2.47247 8.24756C3.68444 8.24756 4.66894 9.23099 4.66894 10.4427Z" fill="white"/>
</g>
<path d="M17.0023 15.7523C17.5131 15.7523 17.994 15.8773 18.4166 16.0991C19.7327 14.7121 20.5831 12.8818 20.7238 10.8546L17.3127 10.7886C17.0501 13.3469 14.8888 15.34 12.2618 15.34C11.5347 15.34 10.8409 15.187 10.2147 14.9104L8.51904 17.877C9.64943 18.4332 10.9184 18.7457 12.2618 18.7457C12.8415 18.7457 13.4101 18.687 13.958 18.5752C14.0748 16.9974 15.393 15.7523 17.0023 15.7523Z" fill="#F37335"/>
<path d="M19.1975 18.8051C19.1975 20.0171 18.215 21.0002 17.0023 21.0002C15.7897 21.0002 14.8065 20.0171 14.8065 18.8051C14.8065 17.5922 15.7897 16.6094 17.0023 16.6094C18.215 16.6094 19.1975 17.5922 19.1975 18.8051Z" fill="#F37335"/>
<g opacity="0.6">
<path d="M18.6502 4.68827C18.1532 5.0402 17.545 5.24849 16.8882 5.24849C15.2013 5.24849 13.8354 3.88223 13.8354 2.19631C13.8354 2.10676 13.8394 2.02015 13.8461 1.93324C13.3332 1.83506 12.8032 1.78467 12.2619 1.78467C10.906 1.78467 9.62369 2.10378 8.4873 2.66893L10.173 5.63748C10.8105 5.35029 11.5176 5.18873 12.2619 5.18873C14.8656 5.18873 17.0116 7.14963 17.3048 9.67513L20.7159 9.57099C20.5653 7.70866 19.811 6.01699 18.6502 4.68827Z" fill="white"/>
</g>
<g opacity="0.6">
<path d="M19.0827 2.19613C19.0827 3.40875 18.1022 4.39188 16.8883 4.39188C15.6757 4.39188 14.6925 3.40875 14.6925 2.19613C14.6925 0.98343 15.6756 0 16.8882 0C18.1021 0 19.0827 0.98343 19.0827 2.19613Z" fill="white"/>
</g>
</svg>
