<svg width="19" height="19" viewBox="0 0 19 19" fill="none" xmlns="http://www.w3.org/2000/svg">
<g opacity="0.6">
<path d="M9.35547 6.49086L12.0753 9.21069L12.0883 9.06822C12.0883 7.63922 10.9269 6.47791 9.49794 6.47791L9.35547 6.49086Z" fill="white"/>
<path d="M9.4974 4.75112C11.8805 4.75112 13.8146 6.68524 13.8146 9.06833C13.8146 9.62525 13.7024 10.1563 13.5081 10.6441L16.0337 13.1697C17.3374 12.0817 18.365 10.6743 18.9996 9.06833C17.5015 5.27784 13.8189 2.59253 9.49744 2.59253C8.28861 2.59253 7.13162 2.80838 6.05664 3.19692L7.92167 5.05762C8.40946 4.86768 8.94048 4.75112 9.4974 4.75112Z" fill="white"/>
<path d="M0.863427 2.39825L2.83207 4.36689L3.22495 4.75977C1.80027 5.87361 0.673483 7.35442 0 9.06832C1.49376 12.8588 5.18064 15.5441 9.49786 15.5441C10.8362 15.5441 12.1141 15.2851 13.2841 14.8145L13.651 15.1815L16.168 17.7027L17.2689 16.6062L1.96431 1.29736L0.863427 2.39825ZM5.63828 7.16877L6.97229 8.50278C6.93344 8.68844 6.90753 8.87405 6.90753 9.06832C6.90753 10.4973 8.06885 11.6586 9.49786 11.6586C9.69213 11.6586 9.87778 11.6327 10.0591 11.5939L11.3931 12.9279C10.8189 13.2128 10.18 13.3855 9.49786 13.3855C7.11476 13.3855 5.18064 11.4514 5.18064 9.06832C5.18064 8.38622 5.35334 7.74726 5.63828 7.16877Z" fill="white"/>
</g>
</svg>
