<svg width="21" height="21" viewBox="0 0 21 21" fill="none" xmlns="http://www.w3.org/2000/svg">
<g clip-path="url(#clip0)">
<path d="M11.6632 11.1152H10.7415L9.11072 12.5534L13.0863 20.6795C14.05 20.4355 14.9611 20.058 15.7985 19.5677L11.6632 11.1152Z" fill="#F37335"/>
<path opacity="0.6" d="M2.24377 16.9689L10.0264 10.1053L15.2172 1.11234C13.7635 0.383086 12.1481 0 10.5089 0C4.71919 0 0.00891113 4.71028 0.00891113 10.5C0.00891113 12.9381 0.844318 15.1847 2.24377 16.9689Z" fill="white"/>
<path d="M17.5941 11.1152L19.7673 15.4495C20.4678 14.1444 20.9006 12.675 20.9911 11.1152H17.5941Z" fill="#F37335"/>
<path d="M16.2176 11.1152H13.0331L16.8309 18.8781C17.6583 18.2522 18.3907 17.5071 19.0018 16.668L16.2176 11.1152Z" fill="#F37335"/>
<path d="M6.94172 20.3758L4.92202 16.2476L3.05835 17.8912C4.14305 18.9845 5.46585 19.8411 6.94172 20.3758Z" fill="#F37335"/>
<path d="M11.8324 20.9167L8.15376 13.3975L5.87903 15.4036L8.52458 20.8112C9.16742 20.9347 9.83061 21.0001 10.5089 21.0001C10.9572 21.0001 11.3988 20.9715 11.8324 20.9167Z" fill="#F37335"/>
<path opacity="0.6" d="M16.2825 1.72852L11.5745 9.88492H20.9908C20.7956 6.58809 19.0416 3.54973 16.2825 1.72852Z" fill="white"/>
</g>
<defs>
<clipPath id="clip0">
<rect width="21" height="21" fill="white"/>
</clipPath>
</defs>
</svg>
